<?xml version="1.0" standalone="no"?>
<!DOCTYPE svg PUBLIC "-//W3C//DTD SVG 20010904//EN"
 "http://www.w3.org/TR/2001/REC-SVG-20010904/DTD/svg10.dtd">
<svg version="1.0" xmlns="http://www.w3.org/2000/svg"
 width="1024.000000pt" height="1024.000000pt" viewBox="0 0 1024.000000 1024.000000"
 preserveAspectRatio="xMidYMid meet">
<metadata>
Created by potrace 1.11, written by Peter Selinger 2001-2013
</metadata>
<g transform="translate(0.000000,1024.000000) scale(0.100000,-0.100000)"
fill="#000000" stroke="none">
<path d="M1405 8009 c-73 -8 -136 -24 -192 -50 -24 -10 -45 -19 -49 -19 -8 0
-93 -59 -129 -90 -57 -49 -116 -115 -148 -166 -31 -49 -79 -157 -84 -188 -3
-16 -8 -39 -12 -50 -13 -36 -14 -92 -15 -855 -1 -737 -1 -744 19 -747 11 -1
40 -4 65 -7 61 -7 138 -26 180 -44 75 -32 141 -68 167 -90 193 -163 280 -331
287 -551 5 -157 -29 -300 -96 -399 -15 -23 -28 -44 -28 -48 0 -12 -90 -105
-163 -168 -69 -59 -233 -122 -342 -132 -27 -3 -59 -7 -70 -10 -20 -4 -20 -10
-19 -772 0 -422 4 -781 7 -798 4 -16 9 -39 11 -50 8 -41 46 -138 71 -181 32
-55 110 -152 143 -178 13 -11 32 -27 41 -36 60 -64 226 -134 351 -149 36 -5
1728 -8 3760 -7 3513 1 3698 2 3760 19 36 10 79 25 97 33 17 7 34 14 38 14 3
0 37 20 73 44 159 104 276 267 319 445 14 57 16 167 17 839 1 768 1 773 -19
777 -11 2 -40 6 -65 9 -62 6 -126 22 -186 45 -56 22 -127 61 -132 73 -2 4 -9
8 -15 8 -14 0 -123 108 -168 165 -45 58 -105 190 -120 265 -16 79 -16 245 0
320 14 66 46 149 80 205 30 49 107 143 140 169 13 11 31 28 41 39 10 10 29 25
42 31 13 7 45 25 71 39 68 38 206 75 294 79 l38 1 -1 776 c-1 844 -1 835 -59
966 -31 71 -99 167 -162 231 -102 102 -254 175 -401 193 -79 10 -7349 10
-7437 0z m6220 -959 c108 -2 154 -14 221 -56 65 -41 118 -104 146 -173 l22
-56 0 -1645 0 -1645 -23 -60 c-42 -105 -160 -202 -266 -220 -22 -3 -1041 -6
-2265 -6 -2917 0 -2927 0 -2977 13 -102 28 -208 134 -242 242 -17 57 -18 133
-17 1690 l2 1631 22 55 c32 80 100 153 180 192 l67 33 370 5 c325 4 4525 4
4760 0z"/>
<path d="M2709 6568 c-4 -7 -5 -2875 -1 -2885 2 -8 602 -11 2415 -11 l2412 0
0 1449 0 1449 -2412 0 c-1327 0 -2414 -1 -2414 -2z"/>
</g>
</svg>
