<?xml version="1.0" encoding="utf-8"?>
<!-- Generator: Adobe Illustrator 25.4.1, SVG Export Plug-In . SVG Version: 6.00 Build 0)  -->
<svg version="1.1" xmlns="http://www.w3.org/2000/svg" xmlns:xlink="http://www.w3.org/1999/xlink" x="0px" y="0px"
	 viewBox="0 0 800 800" style="enable-background:new 0 0 800 800;" xml:space="preserve">
<style type="text/css">
	.st0{fill:url(#SVGID_1_);}
	.st1{fill:#FEC1C7;}
	.st2{fill:url(#SVGID_00000101794657770060531750000011139689205643332741_);}
	.st3{fill:#271F44;}
	.st4{fill:url(#SVGID_00000075842166311326369600000013339433252301348029_);}
	.st5{fill:url(#SVGID_00000162323610961916230820000016872231657348053922_);}
	.st6{fill:url(#SVGID_00000159461194934022710560000018301418713663459991_);}
	.st7{fill:url(#SVGID_00000073723179094617619730000000893216098194106020_);}
	.st8{fill:url(#SVGID_00000031900981865282389920000015522017310170133402_);}
	.st9{fill:#27872C;}
	.st10{fill:url(#SVGID_00000098940747716700834540000000087265941572703142_);}
	.st11{fill:#EDA9B3;}
	.st12{fill:#F8B143;}
	.st13{fill:#E4AEB5;}
	.st14{fill:url(#SVGID_00000151511787689888282790000010188896090062710705_);}
	.st15{fill:url(#SVGID_00000051374025592663059990000011987001656884434842_);}
	.st16{fill:#38B649;}
	.st17{fill:url(#SVGID_00000000201257724479467030000011451377609254912941_);}
	.st18{fill:#EA9C36;}
	.st19{fill:#FFFFFF;}
	.st20{fill:url(#SVGID_00000000213233586115000860000013835980034636134559_);}
	.st21{fill:url(#SVGID_00000105401094809777606970000012681521662402001285_);}
	.st22{fill:url(#SVGID_00000115478085668778638950000004688796420962651317_);}
	.st23{fill:url(#SVGID_00000068670548584740393870000016981534540442134926_);}
	.st24{fill:#1F7221;}
	.st25{fill:url(#SVGID_00000094613414623699337560000007797846506763966597_);}
	.st26{fill:url(#SVGID_00000116219832704014786830000004470528622180746151_);}
	
		.st27{clip-path:url(#SVGID_00000140692455115629348030000015094719183993852315_);fill:url(#SVGID_00000022558598011555605240000010502562747756841647_);}
	.st28{clip-path:url(#SVGID_00000140692455115629348030000015094719183993852315_);fill:#E4AEB5;}
	
		.st29{clip-path:url(#SVGID_00000140692455115629348030000015094719183993852315_);fill:url(#SVGID_00000129181464172909109840000004595174674994686138_);}
	
		.st30{clip-path:url(#SVGID_00000140692455115629348030000015094719183993852315_);fill:url(#SVGID_00000157306620003701019260000017360703619392200840_);}
	
		.st31{clip-path:url(#SVGID_00000140692455115629348030000015094719183993852315_);fill:url(#SVGID_00000046314366062507581970000013993825897024691345_);}
	.st32{clip-path:url(#SVGID_00000140692455115629348030000015094719183993852315_);fill:#271F44;}
	.st33{clip-path:url(#SVGID_00000140692455115629348030000015094719183993852315_);fill:#FEC1C7;}
	
		.st34{clip-path:url(#SVGID_00000140692455115629348030000015094719183993852315_);fill:url(#SVGID_00000053535419844254642180000017944665414279893933_);}
	
		.st35{clip-path:url(#SVGID_00000140692455115629348030000015094719183993852315_);fill:url(#SVGID_00000165221287088434478770000009784409956044974253_);}
	
		.st36{clip-path:url(#SVGID_00000140692455115629348030000015094719183993852315_);fill:url(#SVGID_00000011027951103226763150000009488467692420136070_);}
	.st37{clip-path:url(#SVGID_00000140692455115629348030000015094719183993852315_);fill:#AABEC1;}
	.st38{clip-path:url(#SVGID_00000140692455115629348030000015094719183993852315_);fill:#27872C;}
	
		.st39{clip-path:url(#SVGID_00000140692455115629348030000015094719183993852315_);fill:url(#SVGID_00000168798344673190314400000013372879929320162238_);}
	
		.st40{clip-path:url(#SVGID_00000140692455115629348030000015094719183993852315_);fill:url(#SVGID_00000173135010884056805560000015777230536228053653_);}
	.st41{clip-path:url(#SVGID_00000140692455115629348030000015094719183993852315_);fill:#BFCFD3;}
	
		.st42{clip-path:url(#SVGID_00000140692455115629348030000015094719183993852315_);fill:url(#SVGID_00000047038395144892764350000005907239215328056976_);}
	
		.st43{clip-path:url(#SVGID_00000140692455115629348030000015094719183993852315_);fill:url(#SVGID_00000049931463858423526950000016651345661704429717_);}
	
		.st44{opacity:0.5;clip-path:url(#SVGID_00000140692455115629348030000015094719183993852315_);fill:url(#SVGID_00000126312815290865939170000012982097872484053390_);}
	
		.st45{clip-path:url(#SVGID_00000140692455115629348030000015094719183993852315_);fill:url(#SVGID_00000023998501683964873970000004294209165348091832_);}
	.st46{clip-path:url(#SVGID_00000140692455115629348030000015094719183993852315_);}
	
		.st47{clip-path:url(#SVGID_00000091000895157890263560000007716978629366766229_);fill:url(#SVGID_00000143600219508397427900000018280292882523337116_);}
	.st48{opacity:0.8;clip-path:url(#SVGID_00000091000895157890263560000007716978629366766229_);fill:#27872C;}
	
		.st49{clip-path:url(#SVGID_00000140692455115629348030000015094719183993852315_);fill:url(#SVGID_00000003795875963174129970000011883354682153515196_);}
	
		.st50{clip-path:url(#SVGID_00000183954166461068387090000008081325009174294719_);fill:url(#SVGID_00000034071046447788185780000011517686939226138801_);}
	.st51{fill:url(#SVGID_00000168802397302505476660000008852446752994682779_);}
	.st52{fill:url(#SVGID_00000067219344639736430220000015028062912809835904_);}
	.st53{fill:none;}
	
		.st54{clip-path:url(#SVGID_00000140692455115629348030000015094719183993852315_);fill:url(#SVGID_00000014633586778461842850000012612896569071571382_);}
	.st55{fill:url(#SVGID_00000054234090696361686790000005964953152647027378_);}
	.st56{fill:url(#SVGID_00000166674830212029629750000000362155171574094239_);}
	.st57{fill:url(#SVGID_00000106106274442950299970000011908288581860596653_);}
	.st58{fill:url(#SVGID_00000093881319786909283010000017016857918764920488_);}
	.st59{fill:url(#SVGID_00000106839836312322176110000002705467899037903509_);}
	.st60{fill:url(#SVGID_00000047777826797142336650000012697884721274997406_);}
	.st61{fill:url(#SVGID_00000175312796441267880510000003792890393592637873_);}
	.st62{fill:url(#SVGID_00000158024218952095506420000007300504196376497299_);}
	.st63{opacity:0.6;fill:url(#SVGID_00000090992650233821781350000004401832037517118113_);}
	.st64{opacity:0.8;fill:url(#SVGID_00000108294962888702733840000002443348757259616927_);}
	.st65{clip-path:url(#SVGID_00000163773802381803717250000016035460859473556878_);}
	.st66{fill:url(#SVGID_00000180331141589612721400000002252787965865491647_);}
	.st67{fill:url(#SVGID_00000065760720892568577460000003163005460821906318_);}
	.st68{fill:url(#SVGID_00000160900039099473859210000005594664711688997030_);}
	.st69{fill:url(#SVGID_00000036215734663256557160000013871254775982212031_);}
	.st70{fill:url(#SVGID_00000080189573592183047430000009167245303896489101_);}
	.st71{fill:url(#SVGID_00000037657025196559023210000016823905330449854129_);}
	.st72{opacity:0.5;clip-path:url(#SVGID_00000163773802381803717250000016035460859473556878_);}
	.st73{fill:url(#SVGID_00000052075495535304557850000000486749607902889892_);}
	.st74{fill:url(#SVGID_00000084505842651612309840000001759731620884090551_);}
	.st75{fill:url(#SVGID_00000154402013157822269190000013988483912271910077_);}
	.st76{fill:url(#SVGID_00000036973263161293658250000010832599457105735554_);}
	.st77{fill:url(#SVGID_00000010989590734309848290000006091142619473785011_);}
	.st78{fill:url(#SVGID_00000111880977254099352900000003076744360695875251_);}
	.st79{fill:url(#SVGID_00000093856630162425093790000012305872001752330660_);}
	.st80{fill:url(#SVGID_00000096057208495764450800000017058984394263918233_);}
	.st81{fill:url(#SVGID_00000029756352049134200770000001550478421381284006_);}
	.st82{fill:url(#SVGID_00000044169670764754355610000008693725315945481377_);}
	.st83{fill:url(#SVGID_00000032648827799681151900000005557183317950721924_);}
	.st84{fill:url(#SVGID_00000126311664251254728670000007838750065584228511_);}
	.st85{fill:url(#SVGID_00000036235727545442201590000014066711899830479278_);}
	.st86{fill:url(#SVGID_00000090295205598447291900000002486977394117557388_);}
	
		.st87{clip-path:url(#SVGID_00000163773802381803717250000016035460859473556878_);fill:url(#SVGID_00000075873901009398469880000004583899293972467630_);}
	.st88{opacity:0.5;clip-path:url(#SVGID_00000163773802381803717250000016035460859473556878_);fill:#FFFFFF;}
	.st89{fill:url(#SVGID_00000004532084347275444250000016336300021856664244_);}
	.st90{fill:#FFB27D;}
	.st91{fill:url(#SVGID_00000067944901487749687730000017234280936766835097_);}
	.st92{fill:url(#SVGID_00000127749750835441213730000008547723005425332106_);}
	.st93{fill:url(#SVGID_00000157270120722658659790000017302495727916543384_);}
	.st94{fill:url(#SVGID_00000111181597347545242180000009355822128258202760_);}
	.st95{fill:url(#SVGID_00000168835208960020564160000008485581191791790776_);}
	.st96{fill:#A2B8BC;}
	.st97{fill:url(#SVGID_00000081626912357513758680000012513175232630136488_);}
	.st98{opacity:0.5;fill:url(#SVGID_00000143617444416108995650000017151634597804227220_);}
	.st99{fill:url(#SVGID_00000065755794521013184160000004500838666104613557_);}
	.st100{fill:url(#SVGID_00000002346861432123252660000008854463823975662751_);}
	.st101{fill:url(#SVGID_00000069372214893807378860000001500872362348899772_);}
	.st102{fill:url(#SVGID_00000156549663511098449700000015500684971367339405_);}
	.st103{fill:url(#SVGID_00000029045652558263845880000008695390073085394848_);}
	.st104{fill:url(#SVGID_00000120518245007019599610000006307738098921148850_);}
	.st105{fill:url(#SVGID_00000009583036940895066050000017531172300129172635_);}
	.st106{fill:url(#SVGID_00000071559653043436178980000000681039275503682746_);}
	.st107{fill:url(#SVGID_00000057140432559556067970000018417233206524057021_);}
	.st108{opacity:0.5;fill:#A2B8BC;}
	.st109{fill:url(#SVGID_00000111871135090108994500000017906490246534307732_);}
	.st110{opacity:0.3;fill:#BFCFD3;}
	.st111{fill:url(#SVGID_00000114072336481247956160000003383818090233473467_);}
	.st112{fill:url(#SVGID_00000140693333481150697020000002341282870227243696_);}
	.st113{fill:url(#SVGID_00000029727713718428806890000016120461831269021059_);}
	.st114{fill:url(#SVGID_00000169550356680447689990000012787638321109787827_);}
	.st115{fill:url(#SVGID_00000096032933880585735980000016344535185604015782_);}
	.st116{fill:url(#SVGID_00000070833237835914491170000003549745007822321575_);}
</style>
<g id="Layer_2">
</g>
<g id="Layer_4">
	<g>
		<linearGradient id="SVGID_1_" gradientUnits="userSpaceOnUse" x1="399.6968" y1="739.8231" x2="399.6968" y2="98.4653">
			<stop  offset="0" style="stop-color:#BFCFD3"/>
			<stop  offset="0.5003" style="stop-color:#CFDEE2"/>
			<stop  offset="1" style="stop-color:#DBE8ED"/>
		</linearGradient>
		<path style="opacity:0.6;fill:url(#SVGID_1_);" d="M783.26,417.48c-0.02,1.36-0.04,2.73-0.08,4.1c-0.03,1.19-0.06,2.37-0.1,3.56
			c-0.02,0.59-0.03,1.17-0.05,1.76c-0.02,0.56-0.04,1.13-0.07,1.7c-0.02,0.59-0.04,1.18-0.07,1.77c0,0.23-0.01,0.47-0.03,0.7
			c-0.04,0.96-0.08,1.92-0.13,2.89c-0.04,0.98-0.09,1.97-0.15,2.96c-0.03,0.6-0.06,1.2-0.1,1.79c-0.1,1.81-0.22,3.63-0.35,5.45
			c-0.01,0.17-0.02,0.33-0.04,0.5c-0.12,1.83-0.26,3.67-0.41,5.5c-0.44,5.41-0.97,10.84-1.61,16.27c-0.1,0.87-0.2,1.73-0.31,2.6
			c0,0.02,0,0.05-0.01,0.08c-0.1,0.86-0.21,1.73-0.32,2.59c-0.17,1.3-0.34,2.6-0.52,3.9c-0.18,1.39-0.38,2.78-0.58,4.16
			c-1.42,9.72-3.16,19.4-5.25,28.98c-0.57,2.61-1.15,5.2-1.78,7.79c-0.06,0.27-0.13,0.55-0.19,0.82c-0.63,2.58-1.28,5.15-1.95,7.7
			c-0.36,1.35-0.72,2.7-1.09,4.04c-1.11,4.03-2.28,8.03-3.53,12c-0.54,1.73-1.1,3.45-1.66,5.16c-0.52,1.58-1.05,3.14-1.6,4.71
			c-0.57,1.63-1.14,3.25-1.74,4.87c-0.54,1.49-1.09,2.97-1.66,4.44c-0.77,2.02-1.56,4.02-2.38,6.01c-0.34,0.87-0.7,1.74-1.07,2.6
			c-2.16,5.18-4.46,10.28-6.91,15.27c-0.56,1.15-1.13,2.28-1.7,3.41c-0.57,1.14-1.15,2.26-1.74,3.38c-0.47,0.91-0.95,1.81-1.44,2.7
			c-1.35,2.5-2.73,4.97-4.16,7.4c-0.34,0.59-0.68,1.17-1.03,1.75c-0.17,0.29-0.35,0.58-0.52,0.87c-2.25,3.74-4.59,7.41-7.03,10.99
			c-0.34,0.49-0.67,0.98-1.01,1.47c-0.39,0.56-0.78,1.13-1.18,1.68c-0.64,0.92-1.3,1.84-1.97,2.75c-0.68,0.94-1.37,1.87-2.07,2.8
			c-0.63,0.84-1.26,1.67-1.9,2.49c-1.69,2.18-3.43,4.32-5.2,6.43c-13.45,15.97-29.25,29.77-47.67,40.62
			c-4.43,2.61-8.82,5.13-13.19,7.58c-4.65,2.6-9.28,5.12-13.9,7.54c-2.6,1.36-5.2,2.7-7.8,4c-31.23,15.72-62.38,27.34-97.99,35.13
			c-18.88,4.14-39.02,7.2-61.09,9.23c-26.63,2.45-52.93,3.62-78.64,3.44c-13.28-0.08-26.39-0.52-39.32-1.33
			c-103-6.4-194.14-35.73-256.55-91.4c-5.11-4.55-10.03-9.28-14.74-14.19c-1.44-1.49-2.86-3.01-4.26-4.54
			c-0.54-0.59-1.07-1.17-1.59-1.76c-0.13-0.15-0.26-0.29-0.39-0.44c-0.66-0.73-1.32-1.47-1.98-2.22
			c-14.48-16.6-26.8-35.08-36.62-55.52c-2.97-6.18-5.72-12.54-8.23-19.09c-1.37-3.57-2.67-7.19-3.9-10.87
			c-1.96-5.87-3.73-11.88-5.32-18.03C-12,383.18,83.29,246.78,256.3,248.39c23.91,0.22,42.79-4.77,58.72-13.05
			c33.41-17.36,53.85-49.19,80.46-77.79c29.31-31.5,66.11-59.08,136.02-59.08c1.52,0,3.03,0.01,4.54,0.02
			c0.8,0.01,1.6,0.02,2.39,0.03c0.99,0.01,1.98,0.03,2.96,0.05c2.95,0.05,5.87,0.14,8.76,0.25c1.21,0.04,2.41,0.1,3.61,0.15
			c1.45,0.07,2.89,0.14,4.32,0.23c1.14,0.06,2.28,0.13,3.41,0.21c0.66,0.04,1.31,0.08,1.96,0.13c0.77,0.05,1.54,0.11,2.31,0.17
			c0.71,0.05,1.41,0.11,2.11,0.17c0.16,0.01,0.33,0.02,0.49,0.04c0.87,0.07,1.73,0.14,2.59,0.22c1.56,0.14,3.11,0.29,4.65,0.45
			c0.91,0.09,1.82,0.19,2.72,0.29c0.65,0.07,1.3,0.15,1.95,0.23c0.11,0.01,0.22,0.02,0.33,0.04c0.96,0.11,1.91,0.23,2.86,0.35
			c1.51,0.19,3.02,0.39,4.51,0.61c1.05,0.14,2.09,0.3,3.13,0.46c1.08,0.16,2.15,0.33,3.22,0.51c0.51,0.08,1.03,0.17,1.54,0.25
			c0.06,0.01,0.11,0.02,0.16,0.03c1.18,0.2,2.36,0.41,3.54,0.63c1.96,0.36,3.91,0.74,5.83,1.14c0.5,0.1,1,0.2,1.5,0.31
			c0.88,0.18,1.75,0.37,2.62,0.57c0.73,0.16,1.46,0.33,2.19,0.5c0.92,0.21,1.84,0.43,2.75,0.65c0.86,0.21,1.72,0.43,2.57,0.65
			c0.38,0.09,0.75,0.19,1.12,0.29c0.86,0.22,1.7,0.45,2.55,0.68c0.02,0,0.05,0.01,0.07,0.02c0.51,0.14,1.01,0.28,1.51,0.42
			c0.85,0.23,1.7,0.48,2.54,0.73c0.51,0.15,1.02,0.3,1.53,0.46c0.57,0.17,1.13,0.34,1.69,0.51c0.4,0.12,0.78,0.25,1.17,0.37
			c1,0.32,2,0.64,2.99,0.97c0.94,0.31,1.87,0.63,2.8,0.96c0.28,0.1,0.56,0.19,0.84,0.29c1.06,0.37,2.11,0.76,3.15,1.15
			c1.14,0.42,2.27,0.85,3.39,1.3c0.99,0.38,1.97,0.78,2.94,1.18c0.26,0.11,0.52,0.22,0.78,0.33c0.81,0.33,1.61,0.67,2.4,1.02
			c2.38,1.03,4.73,2.11,7.04,3.23c1.91,0.92,3.79,1.87,5.65,2.86c7.45,3.94,14.56,8.39,21.33,13.37c0.85,0.62,1.69,1.25,2.53,1.89
			c0.83,0.64,1.66,1.29,2.49,1.94c0.82,0.66,1.65,1.32,2.46,2c0.82,0.67,1.63,1.35,2.43,2.04c0.81,0.69,1.61,1.39,2.4,2.1
			c1.59,1.42,3.16,2.87,4.71,4.36c0.77,0.74,1.54,1.49,2.3,2.26c0.65,0.64,1.3,1.3,1.93,1.96c2.39,2.44,4.72,4.98,6.99,7.61
			c0.72,0.83,1.44,1.68,2.15,2.53c1.51,1.8,3,3.65,4.46,5.54c0.61,0.79,1.22,1.58,1.82,2.39c0.69,0.92,1.38,1.85,2.06,2.79
			c0.66,0.92,1.32,1.84,1.97,2.78c0.52,0.73,1.03,1.48,1.54,2.23c0.27,0.4,0.54,0.8,0.81,1.2c1.26,1.87,2.5,3.78,3.71,5.74
			c0.56,0.88,1.11,1.77,1.65,2.67c0.62,1.03,1.24,2.06,1.85,3.11c0.61,1.04,1.22,2.1,1.82,3.17c0.53,0.93,1.05,1.86,1.57,2.81
			c0.11,0.2,0.23,0.41,0.34,0.62c0.55,1.02,1.1,2.05,1.65,3.09c0.58,1.1,1.16,2.22,1.73,3.35c0.41,0.81,0.82,1.62,1.22,2.44
			c0.31,0.59,0.6,1.19,0.89,1.79c0.88,1.8,1.74,3.63,2.59,5.48c1.2,2.61,2.38,5.27,3.53,7.98c0.49,1.14,0.97,2.28,1.44,3.44
			c0.06,0.13,0.11,0.26,0.16,0.4c0.46,1.1,0.91,2.22,1.35,3.34c0.56,1.38,1.1,2.78,1.64,4.2c0.5,1.3,0.99,2.6,1.47,3.92
			c0.36,0.97,0.72,1.95,1.06,2.93c0.23,0.61,0.44,1.23,0.66,1.85c0.71,1.99,1.4,4.01,2.08,6.05c0.3,0.9,0.61,1.81,0.9,2.73
			c1.02,3.11,2.01,6.27,2.97,9.49c0.29,0.93,0.57,1.87,0.84,2.82c0.7,2.38,1.39,4.79,2.06,7.24c0.21,0.76,0.42,1.52,0.62,2.28
			c0.26,0.97,0.52,1.94,0.78,2.92c0.4,1.52,0.8,3.05,1.19,4.6c0.38,1.5,0.76,3.01,1.13,4.54c0.01,0.04,0.02,0.08,0.03,0.13
			c0.38,1.56,0.76,3.14,1.13,4.73c0.5,2.1,0.98,4.21,1.45,6.35c0.26,1.15,0.51,2.3,0.76,3.46c0.25,1.16,0.5,2.32,0.74,3.49
			c0.19,0.89,0.38,1.78,0.56,2.67c0.6,2.89,1.18,5.82,1.74,8.79c0.33,1.71,0.65,3.43,0.97,5.17c0.6,3.25,1.16,6.56,1.69,9.92
			c0.23,1.43,0.45,2.88,0.66,4.33c0.2,1.37,0.4,2.75,0.59,4.13c0.19,1.39,0.38,2.78,0.56,4.18c0.08,0.63,0.16,1.25,0.24,1.88
			c0.26,2.1,0.51,4.21,0.74,6.34c0.09,0.76,0.17,1.52,0.25,2.28c0.17,1.58,0.33,3.18,0.48,4.78c0.15,1.53,0.29,3.07,0.42,4.62
			c0.12,1.37,0.24,2.75,0.34,4.13c0.13,1.59,0.24,3.19,0.35,4.8c0.2,2.97,0.38,5.96,0.53,8.98c0.04,0.74,0.07,1.48,0.1,2.22
			c0.01,0.06,0.01,0.12,0.01,0.18c0.06,1.19,0.11,2.39,0.15,3.59c0.06,1.49,0.11,2.98,0.16,4.48v0.18c0.05,1.63,0.09,3.26,0.12,4.9
			C783.35,405.29,783.36,411.36,783.26,417.48z"/>
		
			<linearGradient id="SVGID_00000050653963716072551390000012422283306124421820_" gradientUnits="userSpaceOnUse" x1="589.1356" y1="376.8804" x2="589.1356" y2="-107.9594">
			<stop  offset="0" style="stop-color:#DBE8ED"/>
			<stop  offset="0.4997" style="stop-color:#CFDEE2"/>
			<stop  offset="1" style="stop-color:#BFCFD3"/>
		</linearGradient>
		<path style="opacity:0.8;fill:url(#SVGID_00000050653963716072551390000012422283306124421820_);" d="M782.79,385.95
			c-0.02,0.67-0.05,1.34-0.08,2.01c-0.03,0.6-0.05,1.2-0.08,1.79c-0.09,1.81-0.19,3.63-0.29,5.45c-0.01,0.17-0.02,0.33-0.04,0.5
			c-0.1,1.83-0.21,3.67-0.34,5.5c-0.23,3.44-0.49,6.89-0.79,10.35c-0.17,1.97-0.35,3.95-0.54,5.92c-0.08,0.87-0.17,1.73-0.26,2.6
			v0.08c-0.03,0.26-0.05,0.51-0.09,0.77c-0.06,0.61-0.11,1.22-0.18,1.82c-0.14,1.3-0.28,2.6-0.43,3.9c-0.14,1.32-0.3,2.63-0.46,3.94
			c0,0.07-0.01,0.15-0.02,0.22c-0.37,3.06-0.76,6.11-1.19,9.15c-0.01,0.09-0.02,0.17-0.04,0.25c-0.44,3.23-0.92,6.46-1.44,9.67
			c-0.49,3.13-1.02,6.25-1.58,9.36c-0.03,0.18-0.07,0.37-0.1,0.55c-0.47,2.61-0.96,5.2-1.47,7.79c-0.05,0.27-0.11,0.55-0.16,0.82
			c-0.52,2.58-1.06,5.15-1.62,7.7c-0.29,1.35-0.59,2.7-0.9,4.04c-0.59,2.62-1.22,5.22-1.86,7.81c-0.34,1.4-0.7,2.8-1.06,4.19
			c-0.34,1.31-0.69,2.62-1.05,3.92c-0.1,0.41-0.21,0.83-0.33,1.24c-0.24,0.89-0.48,1.78-0.74,2.66c-0.18,0.68-0.38,1.37-0.58,2.05
			c-0.11,0.38-0.22,0.75-0.33,1.13c-0.37,1.25-0.73,2.5-1.11,3.74c-0.17,0.55-0.33,1.11-0.51,1.66c-0.37,1.2-0.74,2.4-1.13,3.6
			c-0.33,1.06-0.68,2.11-1.03,3.16c-0.22,0.68-0.45,1.36-0.68,2.03c-0.19,0.58-0.39,1.16-0.59,1.74c-0.2,0.57-0.39,1.14-0.59,1.71
			c-1.7,4.89-3.51,9.7-5.43,14.42c-0.46,1.15-0.93,2.28-1.41,3.41c-0.47,1.14-0.95,2.26-1.44,3.38c-0.39,0.91-0.78,1.81-1.19,2.7
			c-1.12,2.5-2.26,4.97-3.44,7.4c-0.43,0.88-0.86,1.76-1.29,2.62c-1.86,3.74-3.8,7.41-5.82,10.99c-0.28,0.49-0.56,0.98-0.84,1.47
			c-0.32,0.56-0.64,1.13-0.97,1.68c-0.53,0.92-1.08,1.84-1.64,2.75c-0.56,0.94-1.13,1.87-1.71,2.8c-0.52,0.84-1.04,1.67-1.57,2.49
			c-1.4,2.18-2.84,4.32-4.31,6.43H395.48V157.55c29.31-31.5,66.11-59.08,136.02-59.08c1.52,0,3.03,0.01,4.54,0.02
			c0.8,0.01,1.6,0.02,2.39,0.03c0.99,0.01,1.98,0.03,2.96,0.05c2.95,0.05,5.87,0.14,8.76,0.25c1.21,0.04,2.41,0.1,3.61,0.15
			c1.45,0.07,2.89,0.14,4.32,0.23c1.14,0.06,2.28,0.13,3.41,0.21c0.66,0.04,1.31,0.08,1.96,0.13c0.77,0.05,1.54,0.11,2.31,0.17
			c0.71,0.05,1.41,0.11,2.11,0.17c0.16,0.01,0.33,0.02,0.49,0.04c0.87,0.07,1.73,0.14,2.59,0.22c1.56,0.14,3.11,0.29,4.65,0.45
			c0.91,0.09,1.82,0.19,2.72,0.29c0.65,0.07,1.3,0.15,1.95,0.23c0.11,0.01,0.22,0.02,0.33,0.04c0.96,0.11,1.91,0.23,2.86,0.35
			c1.51,0.19,3.02,0.39,4.51,0.61c1.05,0.14,2.09,0.3,3.13,0.46c1.08,0.16,2.15,0.33,3.22,0.51c0.51,0.08,1.03,0.17,1.54,0.25
			c0.06,0.01,0.11,0.02,0.16,0.03c1.18,0.2,2.36,0.41,3.54,0.63c1.96,0.36,3.91,0.74,5.83,1.14c0.5,0.1,1,0.2,1.5,0.31
			c0.88,0.18,1.75,0.37,2.62,0.57c0.73,0.16,1.46,0.33,2.19,0.5c0.92,0.21,1.84,0.43,2.75,0.65c0.86,0.21,1.72,0.43,2.57,0.65
			c0.38,0.09,0.75,0.19,1.12,0.29c0.86,0.22,1.7,0.45,2.55,0.68c0.02,0,0.05,0.01,0.07,0.02c0.51,0.14,1.01,0.28,1.51,0.42
			c0.85,0.23,1.7,0.48,2.54,0.73c0.51,0.15,1.02,0.3,1.53,0.46c0.57,0.17,1.13,0.34,1.69,0.51c0.4,0.12,0.78,0.25,1.17,0.37
			c1,0.32,2,0.64,2.99,0.97c0.94,0.31,1.87,0.63,2.8,0.96c0.28,0.1,0.56,0.19,0.84,0.29c1.06,0.37,2.11,0.76,3.15,1.15
			c1.14,0.42,2.27,0.85,3.39,1.3c0.99,0.38,1.97,0.78,2.94,1.18c0.26,0.11,0.52,0.22,0.78,0.33c0.81,0.33,1.61,0.67,2.4,1.02
			c2.38,1.03,4.73,2.11,7.04,3.23c1.91,0.92,3.79,1.87,5.65,2.86c7.45,3.94,14.56,8.39,21.33,13.37c0.85,0.62,1.69,1.25,2.53,1.89
			c0.83,0.64,1.66,1.29,2.49,1.94c0.82,0.66,1.65,1.32,2.46,2c0.82,0.67,1.63,1.35,2.43,2.04c0.81,0.69,1.61,1.39,2.4,2.1
			c1.59,1.42,3.16,2.87,4.71,4.36c0.77,0.74,1.54,1.49,2.3,2.26c0.65,0.64,1.3,1.3,1.93,1.96c2.39,2.44,4.72,4.98,6.99,7.61
			c0.72,0.83,1.44,1.68,2.15,2.53c1.51,1.8,3,3.65,4.46,5.54c0.61,0.79,1.22,1.58,1.82,2.39c0.69,0.92,1.38,1.85,2.06,2.79
			c0.66,0.92,1.32,1.84,1.97,2.78c0.52,0.73,1.03,1.48,1.54,2.23c0.27,0.4,0.54,0.8,0.81,1.2c1.26,1.87,2.5,3.78,3.71,5.74
			c0.56,0.88,1.11,1.77,1.65,2.67c0.62,1.03,1.24,2.06,1.85,3.11c0.61,1.04,1.22,2.1,1.82,3.17c0.53,0.93,1.05,1.86,1.57,2.81
			c0.11,0.2,0.23,0.41,0.34,0.62c0.55,1.02,1.1,2.05,1.65,3.09c0.58,1.1,1.16,2.22,1.73,3.35c0.41,0.81,0.82,1.62,1.22,2.44
			c0.31,0.59,0.6,1.19,0.89,1.79c0.88,1.8,1.74,3.63,2.59,5.48c1.2,2.61,2.38,5.27,3.53,7.98c0.49,1.14,0.97,2.28,1.44,3.44
			c0.06,0.13,0.11,0.26,0.16,0.4c0.46,1.1,0.91,2.22,1.35,3.34c0.56,1.38,1.1,2.78,1.64,4.2c0.5,1.3,0.99,2.6,1.47,3.92
			c0.36,0.97,0.72,1.95,1.06,2.93c0.23,0.61,0.44,1.23,0.66,1.85c0.71,1.99,1.4,4.01,2.08,6.05c0.3,0.9,0.61,1.81,0.9,2.73
			c1.02,3.11,2.01,6.27,2.97,9.49c0.29,0.93,0.57,1.87,0.84,2.82c0.7,2.38,1.39,4.79,2.06,7.24c0.21,0.76,0.42,1.52,0.62,2.28
			c0.26,0.97,0.52,1.94,0.78,2.92c0.4,1.52,0.8,3.05,1.19,4.6c0.38,1.5,0.76,3.01,1.13,4.54c0.01,0.04,0.02,0.08,0.03,0.13
			c0.38,1.56,0.76,3.14,1.13,4.73c0.5,2.1,0.98,4.21,1.45,6.35c0.26,1.15,0.51,2.3,0.76,3.46c0.25,1.16,0.5,2.32,0.74,3.49
			c0.19,0.89,0.38,1.78,0.56,2.67c0.6,2.89,1.18,5.82,1.74,8.79c0.33,1.71,0.65,3.43,0.97,5.17c0.6,3.25,1.16,6.56,1.69,9.92
			c0.23,1.43,0.45,2.88,0.66,4.33c0.2,1.37,0.4,2.75,0.59,4.13c0.19,1.39,0.38,2.78,0.56,4.18c0.08,0.63,0.16,1.25,0.24,1.88
			c0.26,2.1,0.51,4.21,0.74,6.34c0.09,0.76,0.17,1.52,0.25,2.28c0.17,1.58,0.33,3.18,0.48,4.78c0.15,1.53,0.29,3.07,0.42,4.62
			c0.12,1.37,0.24,2.75,0.34,4.13c0.13,1.59,0.24,3.19,0.35,4.8c0.2,2.97,0.38,5.96,0.53,8.98
			C782.73,384.47,782.76,385.21,782.79,385.95z"/>
		<g>
			<defs>
				<path id="SVGID_00000127043455965512206060000014335024506540311688_" d="M782.79,385.95c-0.02,0.67-0.05,1.34-0.08,2.01
					c-0.03,0.6-0.05,1.2-0.08,1.79c-0.09,1.81-0.19,3.63-0.29,5.45c-0.01,0.17-0.02,0.33-0.04,0.5c-0.1,1.83-0.21,3.67-0.34,5.5
					c-0.23,3.44-0.49,6.89-0.79,10.35c-0.17,1.97-0.35,3.95-0.54,5.92c-0.08,0.87-0.17,1.73-0.26,2.6v0.08
					c-0.03,0.26-0.05,0.51-0.09,0.77c-0.06,0.61-0.11,1.22-0.18,1.82c-0.14,1.3-0.28,2.6-0.43,3.9c-0.14,1.32-0.3,2.63-0.46,3.94
					c0,0.07-0.01,0.15-0.02,0.22c-0.37,3.06-0.76,6.11-1.19,9.15c-0.01,0.09-0.02,0.17-0.04,0.25c-0.44,3.23-0.92,6.46-1.44,9.67
					c-0.49,3.13-1.02,6.25-1.58,9.36c-0.03,0.18-0.07,0.37-0.1,0.55c-0.47,2.61-0.96,5.2-1.47,7.79c-0.05,0.27-0.11,0.55-0.16,0.82
					c-0.52,2.58-1.06,5.15-1.62,7.7c-0.29,1.35-0.59,2.7-0.9,4.04c-0.59,2.62-1.22,5.22-1.86,7.81c-0.34,1.4-0.7,2.8-1.06,4.19
					c-0.34,1.31-0.69,2.62-1.05,3.92c-0.1,0.41-0.21,0.83-0.33,1.24c-0.24,0.89-0.48,1.78-0.74,2.66c-0.18,0.68-0.38,1.37-0.58,2.05
					c-0.11,0.38-0.22,0.75-0.33,1.13c-0.37,1.25-0.73,2.5-1.11,3.74c-0.17,0.55-0.33,1.11-0.51,1.66c-0.37,1.2-0.74,2.4-1.13,3.6
					c-0.33,1.06-0.68,2.11-1.03,3.16c-0.22,0.68-0.45,1.36-0.68,2.03c-0.19,0.58-0.39,1.16-0.59,1.74c-0.2,0.57-0.39,1.14-0.59,1.71
					c-1.7,4.89-3.51,9.7-5.43,14.42c-0.46,1.15-0.93,2.28-1.41,3.41c-0.47,1.14-0.95,2.26-1.44,3.38c-0.39,0.91-0.78,1.81-1.19,2.7
					c-1.12,2.5-2.26,4.97-3.44,7.4c-0.43,0.88-0.86,1.76-1.29,2.62c-1.86,3.74-3.8,7.41-5.82,10.99c-0.28,0.49-0.56,0.98-0.84,1.47
					c-0.32,0.56-0.64,1.13-0.97,1.68c-0.53,0.92-1.08,1.84-1.64,2.75c-0.56,0.94-1.13,1.87-1.71,2.8c-0.52,0.84-1.04,1.67-1.57,2.49
					c-1.4,2.18-2.84,4.32-4.31,6.43H395.48V157.55c29.31-31.5,66.11-59.08,136.02-59.08c1.52,0,3.03,0.01,4.54,0.02
					c0.8,0.01,1.6,0.02,2.39,0.03c0.99,0.01,1.98,0.03,2.96,0.05c2.95,0.05,5.87,0.14,8.76,0.25c1.21,0.04,2.41,0.1,3.61,0.15
					c1.45,0.07,2.89,0.14,4.32,0.23c1.14,0.06,2.28,0.13,3.41,0.21c0.66,0.04,1.31,0.08,1.96,0.13c0.77,0.05,1.54,0.11,2.31,0.17
					c0.71,0.05,1.41,0.11,2.11,0.17c0.16,0.01,0.33,0.02,0.49,0.04c0.87,0.07,1.73,0.14,2.59,0.22c1.56,0.14,3.11,0.29,4.65,0.45
					c0.91,0.09,1.82,0.19,2.72,0.29c0.65,0.07,1.3,0.15,1.95,0.23c0.11,0.01,0.22,0.02,0.33,0.04c0.96,0.11,1.91,0.23,2.86,0.35
					c1.51,0.19,3.02,0.39,4.51,0.61c1.05,0.14,2.09,0.3,3.13,0.46c1.08,0.16,2.15,0.33,3.22,0.51c0.51,0.08,1.03,0.17,1.54,0.25
					c0.06,0.01,0.11,0.02,0.16,0.03c1.18,0.2,2.36,0.41,3.54,0.63c1.96,0.36,3.91,0.74,5.83,1.14c0.5,0.1,1,0.2,1.5,0.31
					c0.88,0.18,1.75,0.37,2.62,0.57c0.73,0.16,1.46,0.33,2.19,0.5c0.92,0.21,1.84,0.43,2.75,0.65c0.86,0.21,1.72,0.43,2.57,0.65
					c0.38,0.09,0.75,0.19,1.12,0.29c0.86,0.22,1.7,0.45,2.55,0.68c0.02,0,0.05,0.01,0.07,0.02c0.51,0.14,1.01,0.28,1.51,0.42
					c0.85,0.23,1.7,0.48,2.54,0.73c0.51,0.15,1.02,0.3,1.53,0.46c0.57,0.17,1.13,0.34,1.69,0.51c0.4,0.12,0.78,0.25,1.17,0.37
					c1,0.32,2,0.64,2.99,0.97c0.94,0.31,1.87,0.63,2.8,0.96c0.28,0.1,0.56,0.19,0.84,0.29c1.06,0.37,2.11,0.76,3.15,1.15
					c1.14,0.42,2.27,0.85,3.39,1.3c0.99,0.38,1.97,0.78,2.94,1.18c0.26,0.11,0.52,0.22,0.78,0.33c0.81,0.33,1.61,0.67,2.4,1.02
					c2.38,1.03,4.73,2.11,7.04,3.23c1.91,0.92,3.79,1.87,5.65,2.86c7.45,3.94,14.56,8.39,21.33,13.37c0.85,0.62,1.69,1.25,2.53,1.89
					c0.83,0.64,1.66,1.29,2.49,1.94c0.82,0.66,1.65,1.32,2.46,2c0.82,0.67,1.63,1.35,2.43,2.04c0.81,0.69,1.61,1.39,2.4,2.1
					c1.59,1.42,3.16,2.87,4.71,4.36c0.77,0.74,1.54,1.49,2.3,2.26c0.65,0.64,1.3,1.3,1.93,1.96c2.39,2.44,4.72,4.98,6.99,7.61
					c0.72,0.83,1.44,1.68,2.15,2.53c1.51,1.8,3,3.65,4.46,5.54c0.61,0.79,1.22,1.58,1.82,2.39c0.69,0.92,1.38,1.85,2.06,2.79
					c0.66,0.92,1.32,1.84,1.97,2.78c0.52,0.73,1.03,1.48,1.54,2.23c0.27,0.4,0.54,0.8,0.81,1.2c1.26,1.87,2.5,3.78,3.71,5.74
					c0.56,0.88,1.11,1.77,1.65,2.67c0.62,1.03,1.24,2.06,1.85,3.11c0.61,1.04,1.22,2.1,1.82,3.17c0.53,0.93,1.05,1.86,1.57,2.81
					c0.11,0.2,0.23,0.41,0.34,0.62c0.55,1.02,1.1,2.05,1.65,3.09c0.58,1.1,1.16,2.22,1.73,3.35c0.41,0.81,0.82,1.62,1.22,2.44
					c0.31,0.59,0.6,1.19,0.89,1.79c0.88,1.8,1.74,3.63,2.59,5.48c1.2,2.61,2.38,5.27,3.53,7.98c0.49,1.14,0.97,2.28,1.44,3.44
					c0.06,0.13,0.11,0.26,0.16,0.4c0.46,1.1,0.91,2.22,1.35,3.34c0.56,1.38,1.1,2.78,1.64,4.2c0.5,1.3,0.99,2.6,1.47,3.92
					c0.36,0.97,0.72,1.95,1.06,2.93c0.23,0.61,0.44,1.23,0.66,1.85c0.71,1.99,1.4,4.01,2.08,6.05c0.3,0.9,0.61,1.81,0.9,2.73
					c1.02,3.11,2.01,6.27,2.97,9.49c0.29,0.93,0.57,1.87,0.84,2.82c0.7,2.38,1.39,4.79,2.06,7.24c0.21,0.76,0.42,1.52,0.62,2.28
					c0.26,0.97,0.52,1.94,0.78,2.92c0.4,1.52,0.8,3.05,1.19,4.6c0.38,1.5,0.76,3.01,1.13,4.54c0.01,0.04,0.02,0.08,0.03,0.13
					c0.38,1.56,0.76,3.14,1.13,4.73c0.5,2.1,0.98,4.21,1.45,6.35c0.26,1.15,0.51,2.3,0.76,3.46c0.25,1.16,0.5,2.32,0.74,3.49
					c0.19,0.89,0.38,1.78,0.56,2.67c0.6,2.89,1.18,5.82,1.74,8.79c0.33,1.71,0.65,3.43,0.97,5.17c0.6,3.25,1.16,6.56,1.69,9.92
					c0.23,1.43,0.45,2.88,0.66,4.33c0.2,1.37,0.4,2.75,0.59,4.13c0.19,1.39,0.38,2.78,0.56,4.18c0.08,0.63,0.16,1.25,0.24,1.88
					c0.26,2.1,0.51,4.21,0.74,6.34c0.09,0.76,0.17,1.52,0.25,2.28c0.17,1.58,0.33,3.18,0.48,4.78c0.15,1.53,0.29,3.07,0.42,4.62
					c0.12,1.37,0.24,2.75,0.34,4.13c0.13,1.59,0.24,3.19,0.35,4.8c0.2,2.97,0.38,5.96,0.53,8.98
					C782.73,384.47,782.76,385.21,782.79,385.95z"/>
			</defs>
			<clipPath id="SVGID_00000129890764859985119960000004260127449777774269_">
				<use xlink:href="#SVGID_00000127043455965512206060000014335024506540311688_"  style="overflow:visible;"/>
			</clipPath>
			<g style="clip-path:url(#SVGID_00000129890764859985119960000004260127449777774269_);">
				
					<linearGradient id="SVGID_00000101783648341410396900000006411986706396283028_" gradientUnits="userSpaceOnUse" x1="479.1237" y1="437.8384" x2="884.4141" y2="437.8384">
					<stop  offset="0" style="stop-color:#BFCFD3"/>
					<stop  offset="1" style="stop-color:#BFCFD3;stop-opacity:0"/>
				</linearGradient>
				<path style="fill:url(#SVGID_00000101783648341410396900000006411986706396283028_);" d="M884.41,415.17
					c0,2.76-0.02-0.47-0.07,2.31c-0.02,1.36-0.04,2.73-0.08,4.1c-0.03,1.19-0.06,2.37-0.1,3.56c-0.02,0.59-0.03,1.17-0.05,1.76
					c-0.02,0.56-0.04,1.13-0.07,1.7c-0.02,0.59-0.04,1.18-0.07,1.77c0,0.23-0.01,0.47-0.03,0.7c-0.04,0.96-0.08,1.92-0.13,2.89
					c-0.04,0.98-0.09,1.97-0.15,2.96c-0.03,0.6-0.06,1.2-0.1,1.79c-0.1,1.81-0.22,3.63-0.35,5.45c-0.01,0.17-0.02,0.33-0.04,0.5
					c-0.12,1.83-0.26,3.67-0.41,5.5c-0.28,3.44-0.6,6.89-0.96,10.35H479.12l84.1-45.34H884.41z"/>
				
					<linearGradient id="SVGID_00000174595801190762991530000012124794506416404627_" gradientUnits="userSpaceOnUse" x1="458.0537" y1="474.7084" x2="880.7339" y2="474.7084">
					<stop  offset="0" style="stop-color:#BFCFD3"/>
					<stop  offset="1" style="stop-color:#BFCFD3;stop-opacity:0"/>
				</linearGradient>
				<path style="fill:url(#SVGID_00000174595801190762991530000012124794506416404627_);" d="M880.73,469.88
					c-0.07,0.61-0.14,1.22-0.22,1.82c-0.17,1.3-0.34,2.6-0.52,3.9c-0.17,1.32-0.36,2.63-0.55,3.94H458.05l21.66-9.66H880.73z"/>
				
					<linearGradient id="SVGID_00000177462336911317389980000005684566468669025432_" gradientUnits="userSpaceOnUse" x1="479.1237" y1="465.1934" x2="881.8037" y2="465.1934">
					<stop  offset="0" style="stop-color:#A2B8BC"/>
					<stop  offset="0.9615" style="stop-color:#A2B8BC;stop-opacity:0.0385"/>
					<stop  offset="1" style="stop-color:#A2B8BC;stop-opacity:0"/>
				</linearGradient>
				<path style="fill:url(#SVGID_00000177462336911317389980000005684566468669025432_);" d="M881.8,460.51
					c-0.2,1.97-0.42,3.95-0.65,5.92c-0.1,0.87-0.2,1.73-0.31,2.6c0,0.02,0,0.05-0.01,0.08c-0.03,0.26-0.06,0.51-0.1,0.77H479.12
					v-9.37H881.8z"/>
				
					<linearGradient id="SVGID_00000139277814699994799250000006903410226701412780_" gradientUnits="userSpaceOnUse" x1="458.0537" y1="484.2234" x2="879.4438" y2="484.2234">
					<stop  offset="0" style="stop-color:#A2B8BC"/>
					<stop  offset="1" style="stop-color:#A2B8BC;stop-opacity:0"/>
				</linearGradient>
				<path style="fill:url(#SVGID_00000139277814699994799250000006903410226701412780_);" d="M879.44,479.54
					c-0.01,0.07-0.02,0.15-0.03,0.22c-0.45,3.06-0.92,6.11-1.44,9.15H458.05v-9.37H879.44z"/>
				
					<linearGradient id="SVGID_00000029016673285283701990000009001820050868198820_" gradientUnits="userSpaceOnUse" x1="443.5239" y1="493.9934" x2="896.0137" y2="493.9934">
					<stop  offset="0" style="stop-color:#BFCFD3"/>
					<stop  offset="1" style="stop-color:#BFCFD3;stop-opacity:0"/>
				</linearGradient>
				<polygon style="fill:url(#SVGID_00000029016673285283701990000009001820050868198820_);" points="896.01,489.16 896.01,498.83 
					443.52,498.83 465.18,489.16 				"/>
				
					<linearGradient id="SVGID_00000067210422838311670800000006449947532120014508_" gradientUnits="userSpaceOnUse" x1="464.5937" y1="503.5084" x2="876.1938" y2="503.5084">
					<stop  offset="0" style="stop-color:#A2B8BC"/>
					<stop  offset="1" style="stop-color:#A2B8BC;stop-opacity:0"/>
				</linearGradient>
				<path style="fill:url(#SVGID_00000067210422838311670800000006449947532120014508_);" d="M876.19,498.83
					c-0.6,3.13-1.24,6.25-1.91,9.36H464.59v-9.36H876.19z"/>
			</g>
			<g style="opacity:0.5;clip-path:url(#SVGID_00000129890764859985119960000004260127449777774269_);">
				
					<linearGradient id="SVGID_00000046318049322066072070000010669598645398470548_" gradientUnits="userSpaceOnUse" x1="635.8774" y1="417.5503" x2="635.8774" y2="387.4965">
					<stop  offset="0" style="stop-color:#A2B8BC;stop-opacity:0"/>
					<stop  offset="0.0385" style="stop-color:#A2B8BC;stop-opacity:0.0385"/>
					<stop  offset="1" style="stop-color:#A2B8BC"/>
				</linearGradient>
				<path style="fill:url(#SVGID_00000046318049322066072070000010669598645398470548_);" d="M641.92,395.99l-0.09-0.05l5.64-6.47
					l-0.83-0.73l-5.78,6.64l-2.54-1.46c0.65-0.61,1.08-1.45,1.16-2.41c0.16-2.05-1.37-3.84-3.42-4c-2.05-0.16-3.84,1.37-4,3.42
					c-0.08,1.07,0.3,2.07,0.97,2.81l-2.7,1.35l-6.25,7.39c0,0-0.82,3.64,5.18,2.48l-1.69,11.64l12.15,0.95l1.41-11.35
					c1.73,1.47,4.53,3.49,6.13,2.7C649.68,407.7,641.92,395.99,641.92,395.99z"/>
				
					<linearGradient id="SVGID_00000091006669526658023580000013705993743139900065_" gradientUnits="userSpaceOnUse" x1="664.3682" y1="414.3221" x2="664.3682" y2="387.4965">
					<stop  offset="0" style="stop-color:#A2B8BC;stop-opacity:0"/>
					<stop  offset="0.0385" style="stop-color:#A2B8BC;stop-opacity:0.0385"/>
					<stop  offset="1" style="stop-color:#A2B8BC"/>
				</linearGradient>
				<path style="fill:url(#SVGID_00000091006669526658023580000013705993743139900065_);" d="M670.41,395.99l-0.1-0.05l5.64-6.47
					l-0.83-0.73l-5.78,6.64l-2.54-1.46c0.65-0.61,1.08-1.45,1.16-2.41c0.16-2.05-1.37-3.84-3.42-4s-3.84,1.37-4,3.42
					c-0.08,1.07,0.3,2.07,0.97,2.81l-2.7,1.35l-6.25,7.39c0,0-0.82,3.64,5.18,2.48l-0.91,8.41l12.15,0.95l0.64-8.12
					c1.73,1.47,4.53,3.49,6.13,2.7C678.17,407.7,670.41,395.99,670.41,395.99z"/>
				
					<linearGradient id="SVGID_00000085211687277422202080000013968336377181462181_" gradientUnits="userSpaceOnUse" x1="691.68" y1="414.3221" x2="691.68" y2="387.4965">
					<stop  offset="0" style="stop-color:#A2B8BC;stop-opacity:0"/>
					<stop  offset="0.0385" style="stop-color:#A2B8BC;stop-opacity:0.0385"/>
					<stop  offset="1" style="stop-color:#A2B8BC"/>
				</linearGradient>
				<path style="fill:url(#SVGID_00000085211687277422202080000013968336377181462181_);" d="M697.72,395.99l-0.09-0.05l5.64-6.47
					l-0.83-0.73l-5.78,6.64l-2.54-1.46c0.65-0.61,1.08-1.45,1.16-2.41c0.16-2.05-1.37-3.84-3.42-4s-3.84,1.37-4,3.42
					c-0.08,1.07,0.3,2.07,0.97,2.81l-2.7,1.35l-6.25,7.39c0,0-0.82,3.64,5.18,2.48l-0.91,8.41l12.15,0.95l0.64-8.12
					c1.73,1.47,4.53,3.49,6.13,2.7C705.48,407.7,697.72,395.99,697.72,395.99z"/>
				
					<linearGradient id="SVGID_00000080177295717349842830000001996486879796024254_" gradientUnits="userSpaceOnUse" x1="717.8351" y1="414.3221" x2="717.8351" y2="387.4965">
					<stop  offset="0" style="stop-color:#A2B8BC;stop-opacity:0"/>
					<stop  offset="0.0385" style="stop-color:#A2B8BC;stop-opacity:0.0385"/>
					<stop  offset="1" style="stop-color:#A2B8BC"/>
				</linearGradient>
				<path style="fill:url(#SVGID_00000080177295717349842830000001996486879796024254_);" d="M723.88,395.99l-0.09-0.05l5.64-6.47
					l-0.83-0.73l-5.78,6.64l-2.54-1.46c0.65-0.61,1.08-1.45,1.16-2.41c0.16-2.05-1.37-3.84-3.42-4s-3.84,1.37-4,3.42
					c-0.08,1.07,0.3,2.07,0.97,2.81l-2.7,1.35l-6.25,7.39c0,0-0.82,3.64,5.18,2.48l-0.91,8.41l12.15,0.95l0.64-8.12
					c1.73,1.47,4.53,3.49,6.13,2.7C731.64,407.7,723.88,395.99,723.88,395.99z"/>
				
					<linearGradient id="SVGID_00000090281343844390291430000004609925033871179454_" gradientUnits="userSpaceOnUse" x1="745.3134" y1="414.3221" x2="745.3134" y2="387.4965">
					<stop  offset="0" style="stop-color:#A2B8BC;stop-opacity:0"/>
					<stop  offset="0.0385" style="stop-color:#A2B8BC;stop-opacity:0.0385"/>
					<stop  offset="1" style="stop-color:#A2B8BC"/>
				</linearGradient>
				<path style="fill:url(#SVGID_00000090281343844390291430000004609925033871179454_);" d="M751.35,395.99l-0.09-0.05l5.64-6.47
					l-0.83-0.73l-5.78,6.64l-2.54-1.46c0.65-0.61,1.08-1.45,1.16-2.41c0.16-2.05-1.37-3.84-3.42-4c-2.05-0.16-3.84,1.37-4,3.42
					c-0.08,1.07,0.3,2.07,0.97,2.81l-2.7,1.35l-6.25,7.39c0,0-0.82,3.64,5.18,2.48l-0.91,8.41l12.15,0.95l0.64-8.12
					c1.73,1.47,4.53,3.49,6.13,2.7C759.11,407.7,751.35,395.99,751.35,395.99z"/>
				
					<linearGradient id="SVGID_00000034085196391918917940000017977189776886773132_" gradientUnits="userSpaceOnUse" x1="770.409" y1="414.3221" x2="770.409" y2="387.4965">
					<stop  offset="0" style="stop-color:#A2B8BC;stop-opacity:0"/>
					<stop  offset="0.0385" style="stop-color:#A2B8BC;stop-opacity:0.0385"/>
					<stop  offset="1" style="stop-color:#A2B8BC"/>
				</linearGradient>
				<path style="fill:url(#SVGID_00000034085196391918917940000017977189776886773132_);" d="M776.45,395.99l-0.09-0.05l5.64-6.47
					l-0.83-0.73l-5.78,6.64l-2.54-1.46c0.65-0.61,1.08-1.45,1.16-2.41c0.16-2.05-1.37-3.84-3.42-4s-3.84,1.37-4,3.42
					c-0.08,1.07,0.3,2.07,0.97,2.81l-2.7,1.35l-6.25,7.39c0,0-0.82,3.64,5.18,2.48l-0.91,8.41l12.15,0.95l0.64-8.12
					c1.73,1.47,4.53,3.49,6.13,2.7C784.21,407.7,776.45,395.99,776.45,395.99z"/>
			</g>
			<g style="clip-path:url(#SVGID_00000129890764859985119960000004260127449777774269_);">
				<g>
					
						<linearGradient id="SVGID_00000037673099788909849300000001304174151306329749_" gradientUnits="userSpaceOnUse" x1="659.1498" y1="441.9958" x2="659.1498" y2="437.663">
						<stop  offset="0" style="stop-color:#BFCFD3"/>
						<stop  offset="1" style="stop-color:#AABEC1"/>
					</linearGradient>
					<path style="fill:url(#SVGID_00000037673099788909849300000001304174151306329749_);" d="M658.26,437.66l0.05,0.87l2.39,2.27
						l2.02,0.3v0.65c0,0-3.11,0-4.06,0c-0.95,0-1.49-1.42-1.49-1.42l-0.27,1.67h-1.09c0,0-0.13-1.02-0.21-1.92s0.42-2.1,0.42-2.1
						L658.26,437.66z"/>
					
						<linearGradient id="SVGID_00000109721443667807828650000007016953480900605876_" gradientUnits="userSpaceOnUse" x1="656.1677" y1="437.9348" x2="656.1677" y2="397.3657">
						<stop  offset="0" style="stop-color:#BFCFD3"/>
						<stop  offset="1" style="stop-color:#AABEC1"/>
					</linearGradient>
					<path style="fill:url(#SVGID_00000109721443667807828650000007016953480900605876_);" d="M643.45,405.6l1.67-0.99l-2.28-2.1
						l0.43-0.27l2.3,2.11l2.27-1.35c0,0-1.52-4.57,0.8-5.24c2.31-0.67,3.43-0.36,4.34,0.23c1.47,0.95,0.8,4.16,0.44,4.13
						c-0.14,0.48-0.39,1.24-0.72,1.82c-0.1,0.18-0.2,0.34-0.3,0.48c0.22,0.12,0.4,0.25,0.53,0.38c0.99,1,5.49,7.15,5.49,8.33
						c0,1.18-1.18,3.69-2.36,3.33c-1.18-0.37-1.48-0.84-1.48-0.84l0.77,2.37l2.55,1.78c2.83,0.46,6.42,1.2,6.95,2.02
						c0.89,1.39,0.96,12.39,0.96,12.39l-0.19,0.03l1.96,1.85l2.02,0.3v0.65c0,0-3.11,0-4.06,0s-1.49-0.2-1.49-0.2l-0.27,0.44h-1.09
						c0,0-0.13-1.02-0.21-1.92c-0.02-0.2,0-0.43,0.03-0.64l-1.87,0.29l0.1-8.24l-1.1-0.35c0.5,3.47,0.54,10.73,0.54,10.73
						l-5.18,0.81l0.1-8.24l-9.16-6.13l0.04-0.06c-0.99-0.74-1.9-1.6-2.05-2.32c-0.07-0.33-0.14-1.14-0.2-2.22
						c-0.1-0.01-0.18-0.03-0.24-0.05c-0.7-0.28-0.7-12.01-0.7-12.01S642.64,405.96,643.45,405.6z"/>
				</g>
				<g>
					
						<linearGradient id="SVGID_00000128477190095732274100000000519030857149732231_" gradientUnits="userSpaceOnUse" x1="626.9835" y1="446.7083" x2="626.9835" y2="442.3754">
						<stop  offset="0" style="stop-color:#BFCFD3"/>
						<stop  offset="1" style="stop-color:#AABEC1"/>
					</linearGradient>
					<path style="fill:url(#SVGID_00000128477190095732274100000000519030857149732231_);" d="M626.09,442.38l0.05,0.87l2.39,2.27
						l2.02,0.3v0.65c0,0-3.11,0-4.06,0c-0.95,0-1.49-1.42-1.49-1.42l-0.27,1.67h-1.09c0,0-0.13-1.02-0.21-1.92
						c-0.07-0.9,0.42-2.1,0.42-2.1L626.09,442.38z"/>
					
						<linearGradient id="SVGID_00000103969397484853174340000006647449272639905924_" gradientUnits="userSpaceOnUse" x1="624.0014" y1="442.6472" x2="624.0014" y2="402.0781">
						<stop  offset="0" style="stop-color:#BFCFD3"/>
						<stop  offset="1" style="stop-color:#AABEC1"/>
					</linearGradient>
					<path style="fill:url(#SVGID_00000103969397484853174340000006647449272639905924_);" d="M611.28,410.31l1.67-0.99l-2.28-2.1
						l0.43-0.27l2.3,2.11l2.27-1.35c0,0-1.52-4.57,0.8-5.24c2.31-0.67,3.43-0.36,4.34,0.23c1.47,0.95,0.8,4.16,0.44,4.13
						c-0.14,0.48-0.39,1.24-0.72,1.82c-0.1,0.18-0.2,0.34-0.3,0.48c0.22,0.12,0.4,0.25,0.53,0.38c0.99,1,5.49,7.15,5.49,8.33
						c0,1.18-1.18,3.69-2.36,3.33c-1.18-0.37-1.48-0.84-1.48-0.84l0.77,2.37l2.55,1.78c2.83,0.46,6.42,1.2,6.95,2.02
						c0.89,1.39,0.96,12.39,0.96,12.39l-0.19,0.03l1.96,1.85l2.02,0.3v0.65c0,0-3.11,0-4.06,0s-1.49-0.2-1.49-0.2l-0.27,0.44h-1.09
						c0,0-0.13-1.02-0.21-1.92c-0.02-0.2,0-0.43,0.03-0.64l-1.87,0.29l0.1-8.24l-1.1-0.35c0.5,3.47,0.54,10.73,0.54,10.73
						l-5.18,0.81l0.1-8.24l-9.16-6.13l0.04-0.06c-0.99-0.74-1.9-1.6-2.05-2.32c-0.07-0.33-0.14-1.14-0.2-2.22
						c-0.1-0.01-0.18-0.03-0.24-0.05c-0.7-0.28-0.7-12.01-0.7-12.01S610.47,410.67,611.28,410.31z"/>
				</g>
				
					<linearGradient id="SVGID_00000026143701058556166660000010252656058650285482_" gradientUnits="userSpaceOnUse" x1="676.147" y1="436.0066" x2="676.147" y2="395.2923">
					<stop  offset="0" style="stop-color:#BFCFD3"/>
					<stop  offset="1" style="stop-color:#AABEC1"/>
				</linearGradient>
				<path style="fill:url(#SVGID_00000026143701058556166660000010252656058650285482_);" d="M681.82,403.27l-0.09-0.05l5.3-6.08
					l-0.78-0.68l-5.43,6.24l-2.38-1.37c0.74-0.7,1.19-1.73,1.08-2.88c-0.14-1.5-1.3-2.78-2.78-3.07c-2.09-0.42-4.02,1.09-4.18,3.15
					c-0.08,1.01,0.28,1.95,0.91,2.64l-2.54,1.27l-5.87,6.94c0,0-0.77,3.42,4.86,2.33l-0.42,6.89c-1.22,0.26-2.05,1.32-1.83,2.47
					l2.92,14.96h3.26l-1.06-12.27c2.09,0.83,4.38,0.91,6.49,0.24l-1.04,12.03h3.26l2.92-14.96c0.26-1.32-0.89-2.54-2.41-2.54l0,0
					c-0.28,0-0.54,0.05-0.79,0.12l-0.16-5.78c1.63,1.38,4.26,3.27,5.76,2.53C689.11,414.27,681.82,403.27,681.82,403.27z"/>
				
					<linearGradient id="SVGID_00000103231202320917286750000010075138854579954336_" gradientUnits="userSpaceOnUse" x1="703.9832" y1="436.0066" x2="703.9832" y2="395.2923">
					<stop  offset="0" style="stop-color:#BFCFD3"/>
					<stop  offset="1" style="stop-color:#AABEC1"/>
				</linearGradient>
				<path style="fill:url(#SVGID_00000103231202320917286750000010075138854579954336_);" d="M709.66,403.27l-0.09-0.05l5.3-6.08
					l-0.78-0.68l-5.43,6.24l-2.38-1.37c0.74-0.7,1.19-1.73,1.08-2.88c-0.14-1.5-1.3-2.78-2.78-3.07c-2.09-0.42-4.02,1.09-4.18,3.15
					c-0.08,1.01,0.28,1.95,0.91,2.64l-2.54,1.27l-5.87,6.94c0,0-0.77,3.42,4.86,2.33l-0.42,6.89c-1.22,0.26-2.05,1.32-1.83,2.47
					l2.92,14.96h3.26l-1.06-12.27c2.09,0.83,4.38,0.91,6.49,0.24l-1.04,12.03h3.26l2.92-14.96c0.26-1.32-0.89-2.54-2.41-2.54
					c-0.28,0-0.54,0.05-0.79,0.12l-0.16-5.78c1.63,1.38,4.26,3.27,5.76,2.53C716.95,414.27,709.66,403.27,709.66,403.27z"/>
				
					<linearGradient id="SVGID_00000059282657300160507270000005381957080067280768_" gradientUnits="userSpaceOnUse" x1="760.0282" y1="436.0066" x2="760.0282" y2="395.2923">
					<stop  offset="0" style="stop-color:#BFCFD3"/>
					<stop  offset="1" style="stop-color:#AABEC1"/>
				</linearGradient>
				<path style="fill:url(#SVGID_00000059282657300160507270000005381957080067280768_);" d="M765.7,403.27l-0.09-0.05l5.3-6.08
					l-0.78-0.68l-5.43,6.24l-2.38-1.37c0.74-0.7,1.19-1.73,1.08-2.88c-0.14-1.5-1.3-2.78-2.78-3.07c-2.09-0.42-4.02,1.09-4.18,3.15
					c-0.08,1.01,0.28,1.95,0.91,2.64l-2.54,1.27l-5.87,6.94c0,0-0.77,3.42,4.86,2.33l-0.42,6.89c-1.22,0.26-2.05,1.32-1.83,2.47
					l2.92,14.96h3.26l-1.06-12.27c2.09,0.83,4.38,0.91,6.49,0.24l-1.04,12.03h3.26l2.92-14.96c0.26-1.32-0.89-2.54-2.41-2.54
					c-0.28,0-0.54,0.05-0.79,0.12l-0.16-5.78c1.63,1.38,4.26,3.27,5.76,2.53C772.99,414.27,765.7,403.27,765.7,403.27z"/>
				
					<linearGradient id="SVGID_00000136385871526429594530000008846981182336810116_" gradientUnits="userSpaceOnUse" x1="787.6253" y1="436.0066" x2="787.6253" y2="395.2923">
					<stop  offset="0" style="stop-color:#BFCFD3"/>
					<stop  offset="1" style="stop-color:#AABEC1"/>
				</linearGradient>
				<path style="fill:url(#SVGID_00000136385871526429594530000008846981182336810116_);" d="M793.3,403.27l-0.09-0.05l5.3-6.08
					l-0.78-0.68l-5.43,6.24l-2.38-1.37c0.74-0.7,1.19-1.73,1.08-2.88c-0.14-1.5-1.3-2.78-2.78-3.07c-2.09-0.42-4.02,1.09-4.18,3.15
					c-0.08,1.01,0.28,1.95,0.91,2.64l-2.54,1.27l-5.87,6.94c0,0-0.77,3.42,4.86,2.33l-0.42,6.89c-1.22,0.26-2.05,1.32-1.83,2.47
					l2.92,14.96h3.26l-1.06-12.27c2.09,0.83,4.38,0.91,6.49,0.24l-1.04,12.03h3.26l2.92-14.96c0.26-1.32-0.89-2.54-2.41-2.54
					c-0.28,0-0.54,0.05-0.79,0.12l-0.16-5.78c1.63,1.38,4.26,3.27,5.76,2.53C800.59,414.27,793.3,403.27,793.3,403.27z"/>
			</g>
			
				<linearGradient id="SVGID_00000139284096220787127410000001201991368260444862_" gradientUnits="userSpaceOnUse" x1="732.2642" y1="454.0836" x2="732.2642" y2="391.7726">
				<stop  offset="0" style="stop-color:#A2B8BC;stop-opacity:0"/>
				<stop  offset="0.0385" style="stop-color:#A2B8BC;stop-opacity:0.0385"/>
				<stop  offset="1" style="stop-color:#A2B8BC"/>
			</linearGradient>
			
				<path style="clip-path:url(#SVGID_00000129890764859985119960000004260127449777774269_);fill:url(#SVGID_00000139284096220787127410000001201991368260444862_);" d="
				M748.47,402.6l-2.5,7.11c0,0-1.05,1.26-2.04,0.96c-0.52-0.17-2.07-0.98-3.41-1.71c0.06,0.44,0.11,0.88,0.18,1.33
				c0.29,2.28,0,18.44,0,18.44c-0.34,0.51-1.26,1.44-2.35,2.45v22.9h-5.63l-0.43-24.88l0.08,0.01l-0.08-0.74l-0.34,2.46l-0.38,23.16
				h-5.63V430.9c-1.53-1.45-2.77-2.63-2.77-2.63s0.67-14.81,0.85-16.89c0.07-0.8,0.17-2.07,0.28-3.45l-5.45,2.63
				c0,0-1.2,0.34-1.95-0.23s-0.19-7.67-0.19-7.67s0.11-0.15,0.35-0.36l-0.09-0.94c0,0,0.07-0.09,0.18-0.21
				c-0.36-0.54-1.07-1.6-1.07-1.7c0-0.13,0.21-0.18,0.21-0.18s-0.02-0.34,0-0.47c0.02-0.14,0.23-0.11,0.23-0.11s-0.06-0.4,0-0.57
				c0.05-0.18,0.32-0.19,0.32-0.19l0.14-1.04c0,0,0.28-0.74,0.45-0.74c0.17,0,0.15,1.82,0.15,1.82l0.96,1.09
				c0,0,0.51-1.09,0.61-1.25c0.09-0.15,0.34-0.44,0.51-0.38c0.18,0.05-0.01,0.77-0.01,0.77s0.02,0.85,0,1.16
				c-0.01,0.2-0.22,0.7-0.37,1.03c0.14-0.02,0.22-0.02,0.22-0.02v0.64c0.13-0.04,0.27-0.08,0.41-0.11l0.15,3.91l4.76-3.78l1.76,0.11
				l2.94-0.45l0.3-0.41c-0.82-0.11-1.63-0.31-2.02-0.7c-0.97-0.97-0.76-2-0.76-2h1.03l-0.38-0.87l0.43-0.67l-0.32-0.81l0.69-0.79
				c0,0,0.71-2,1.79-2.32c1.08-0.32,1.99,0,1.99,0s1.09-0.67,2.06-0.15c0.97,0.53,2.05,2.27,2.05,2.27l0.38,0.98l-0.76,0.7
				l0.33,1.22l0.43,0.92h1.24c0,0-0.05,1.49-0.86,1.75c-0.32,0.09-1.14,0.21-2.02,0.3l0.22,0.58l1.82,0.47l2.24-0.17l4.67,4.03
				l1.16-4.03c0,0,0.16,0.05,0.41,0.14l0.2-0.44c0,0-1.32-0.83-1.36-1.13c-0.04-0.3,0-1.11,0-1.11l0.43-0.25l-3.05-6.06l0.29-0.2
				l2.98,5.18c0.07-0.15,0.16-0.25,0.29-0.25c0.45,0.02,0.41,0.4,0.41,0.4s0.31-0.09,0.51-0.04c0.21,0.06,0.27,0.31,0.27,0.31
				s0.25-0.11,0.37,0.04c0.11,0.13,0.18,0.39,0.2,0.44c0-0.02,0.02-0.08,0.18,0.01c0.21,0.11,0.47,1.17,0.47,1.45
				c0,0.2-0.04,1.04-0.06,1.52c0.46,0.31,0.61,0.77,0.61,0.77l-0.25,0.54C748.27,402.38,748.39,402.49,748.47,402.6z"/>
			<path style="opacity:0.5;clip-path:url(#SVGID_00000129890764859985119960000004260127449777774269_);fill:#FFFFFF;" d="
				M886.34,326.72H649.67V160.69h140.92c47.85,23.18,78.45,71.1,94.42,158.24C885.48,321.48,885.92,324.08,886.34,326.72z"/>
		</g>
		<g>
			<path class="st1" d="M574.12,503.39c0,0-1.41,9.29,1.53,14.12h-18.71c0,0,1.49-8,0.74-13.06
				C556.94,499.38,574.12,503.39,574.12,503.39z"/>
			<path class="st1" d="M565.88,507.77c0,0-13.92-0.93-15.22-17.79c-1.02-13.3,0.24-15.65,14-16.04
				c13.03-0.37,15.57,3.43,15.58,8.04C580.28,506.33,571.07,506.57,565.88,507.77z"/>
			<path class="st3" d="M569.41,466.48c5.17,1.45,10.48,6.22,12.55,12.3c2.07,6.08-0.62,12.65-2.27,14.25
				c-1.65,1.6-5.77,11.98-13.18,12c-6.86,0.01-10.35-3.29-11.41-7.29s-4.74-5.41-5.96-9.53c-1.22-4.12-1.68-12.47,3.75-16.94
				C557.61,467.37,563.53,464.83,569.41,466.48z"/>
			<path class="st1" d="M580.24,490.84c0,0,1.61-1.34,2.19,0.31c0.58,1.65-3.19,7.12-4.6,5.29
				C576.42,494.62,580.24,490.84,580.24,490.84z"/>
			<path class="st1" d="M551.9,490.84c0,0-1.61-1.34-2.19,0.31c-0.58,1.65,3.19,7.12,4.6,5.29
				C555.72,494.62,551.9,490.84,551.9,490.84z"/>
			
				<linearGradient id="SVGID_00000026850874738914053600000009925599969458800048_" gradientUnits="userSpaceOnUse" x1="503.9847" y1="540.3224" x2="623.7526" y2="540.3224">
				<stop  offset="0" style="stop-color:#27872C"/>
				<stop  offset="0.1522" style="stop-color:#429646"/>
				<stop  offset="0.4795" style="stop-color:#87BC89"/>
				<stop  offset="0.9536" style="stop-color:#F4F9F4"/>
				<stop  offset="1" style="stop-color:#FFFFFF"/>
			</linearGradient>
			<path style="fill:url(#SVGID_00000026850874738914053600000009925599969458800048_);" d="M594.71,517.5
				c-9.11-7.05-36.53-7.98-54.76-1.49c-3.62,1.29-7.21,4.63-9.99,13.92c-1.35,4.5-16.96,17.87-23.13,23.02
				c-1.6,1.33-2.61,3.24-2.82,5.31l0,0c-0.29,2.85,2.93,10.6,5.8,10.75h113.95l-0.76-7.98c-0.27-2.77-1.18-5.44-2.67-7.79
				C614.64,544.3,599.92,521.54,594.71,517.5z"/>
		</g>
		<g>
			<path class="st1" d="M378.73,492.21c0,0,1.4,9.19-1.51,13.95h18.49c0,0-1.47-7.91-0.74-12.91S378.73,492.21,378.73,492.21z"/>
			<path class="st1" d="M394.97,493.26c0,0,5.66,2.37,6.94-14.3c1.01-13.14-0.23-15.46-13.83-15.85
				c-12.88-0.37-15.38,3.39-15.39,7.95C372.65,495.12,389.85,492.08,394.97,493.26z"/>
			<path class="st3" d="M383.38,455.74c-5.11,1.43-12.4,5.39-12.4,12.15c0,6.34,0.62,12.5,2.25,14.08c1.63,1.58,1.15,8.73,8.47,8.75
				c6.78,0.01,13.67-4.26,14.72-8.22c1.05-3.95,5.99-1.18,7.01-5.3c2.02-8.13,1.66-12.32-3.7-16.74
				C395.04,456.62,389.19,454.11,383.38,455.74z"/>
			<path class="st90" d="M372.68,479.81c0,0-1.59-1.32-2.16,0.31c-0.57,1.63,3.15,7.03,4.55,5.23
				C376.46,483.55,372.68,479.81,372.68,479.81z"/>
			<path class="st12" d="M338.09,533.74v45.34l109.94-2.65c2.83-0.14,13.54-11.78,13.25-14.6l-5.82-9.21
				c-2.62-3.83-8.66-10.11-10.24-11.42c-6.1-5.09-21.53-18.3-22.86-22.75c-2.75-9.18-6.3-12.48-9.87-13.75
				c-5.28-1.88-11.35-3.13-17.51-3.79c-1.3-0.14-2.6-0.25-3.9-0.33c-4.16-0.27-8.31-0.27-12.21-0.02c-8.84,0.58-16.48,2.49-20.5,5.6
				C354.64,509.07,345.15,522.97,338.09,533.74z"/>
			<path class="st3" d="M389.12,452.08c-1.94,0.21-3.9,0.13-5.83-0.17c-3.77-0.59-9.91-0.78-12.82,3.32
				c-11.25,15.84,2.59,24.86,0.52,30.48c-2.07,5.62-15.58,13.23-12.6,20.45c7.4,17.91,19.93,3.98,32.12-0.08
				c2.35-0.78,1.2-13.13-11.37-19.41c-3.78-1.89,19.05-5.93,22.77-7.71c5.42-2.6,5.69-7.12,4.85-11.44
				C405.38,460.48,399.26,450.98,389.12,452.08z"/>
			<path class="st1" d="M395.49,480.31c0,0-0.22-2.12,1.48-1.96c4.26,0.39,4.16,6.52,1.85,7
				C396.51,485.82,395.49,480.31,395.49,480.31z"/>
		</g>
		<g>
			<path class="st90" d="M738.66,510.05c0,0-1,6.56,1.08,9.97h-13.21c0,0,1.05-5.65,0.53-9.22
				C726.53,507.23,738.66,510.05,738.66,510.05z"/>
			<path class="st13" d="M732.84,513.15c0,0-9.83-0.65-10.74-12.56c-0.72-9.39,0.17-11.05,9.88-11.32c9.2-0.26,10.99,2.42,11,5.68
				C743,512.13,736.5,512.3,732.84,513.15z"/>
			<path class="st3" d="M735.33,484c3.65,1.02,8.86,3.85,8.86,8.68c0,4.53-0.44,8.93-1.6,10.06c-1.16,1.13-4.08,8.46-9.3,8.47
				c-4.84,0.01-7.31-2.33-8.06-5.15c-0.75-2.82-3.48-3.79-4.21-6.73c-1.44-5.81-1.19-8.8,2.64-11.96
				C727,484.63,731.18,482.84,735.33,484z"/>
			<path class="st90" d="M742.97,501.19c0,0,1.14-0.94,1.55,0.22c0.41,1.16-2.25,5.02-3.25,3.74
				C740.28,503.86,742.97,501.19,742.97,501.19z"/>
			
				<linearGradient id="SVGID_00000182508126163381985350000015250589955211270054_" gradientUnits="userSpaceOnUse" x1="760.8804" y1="550.4984" x2="761.9805" y2="550.4984">
				<stop  offset="0" style="stop-color:#A2B8BC"/>
				<stop  offset="0.2196" style="stop-color:#A6BBBF;stop-opacity:0.7804"/>
				<stop  offset="0.4234" style="stop-color:#B1C3C7;stop-opacity:0.5766"/>
				<stop  offset="0.6211" style="stop-color:#C4D2D4;stop-opacity:0.3789"/>
				<stop  offset="0.8137" style="stop-color:#DEE6E7;stop-opacity:0.1863"/>
				<stop  offset="1" style="stop-color:#FFFFFF;stop-opacity:0"/>
			</linearGradient>
			<path style="fill:url(#SVGID_00000182508126163381985350000015250589955211270054_);" d="M760.88,552.09
				c0.38-1.06,0.74-2.12,1.1-3.18c-0.22,0.68-0.46,1.37-0.7,2.05C761.15,551.34,761.02,551.71,760.88,552.09z"/>
			
				<linearGradient id="SVGID_00000142895793941026789820000006394087899497913242_" gradientUnits="userSpaceOnUse" x1="761.9805" y1="546.9584" x2="763.2803" y2="546.9584">
				<stop  offset="0" style="stop-color:#A2B8BC"/>
				<stop  offset="0.2196" style="stop-color:#A6BBBF;stop-opacity:0.7804"/>
				<stop  offset="0.4234" style="stop-color:#B1C3C7;stop-opacity:0.5766"/>
				<stop  offset="0.6211" style="stop-color:#C4D2D4;stop-opacity:0.3789"/>
				<stop  offset="0.8137" style="stop-color:#DEE6E7;stop-opacity:0.1863"/>
				<stop  offset="1" style="stop-color:#FFFFFF;stop-opacity:0"/>
			</linearGradient>
			<path style="fill:url(#SVGID_00000142895793941026789820000006394087899497913242_);" d="M761.98,548.91
				c0.44-1.29,0.88-2.59,1.3-3.9c-0.13,0.41-0.26,0.83-0.4,1.24C762.59,547.14,762.29,548.03,761.98,548.91z"/>
			
				<linearGradient id="SVGID_00000111878797596896252150000013422917786324975281_" gradientUnits="userSpaceOnUse" x1="679.676" y1="543.4592" x2="765.8204" y2="543.4592">
				<stop  offset="0" style="stop-color:#27872C"/>
				<stop  offset="0.1522" style="stop-color:#429646"/>
				<stop  offset="0.4795" style="stop-color:#87BC89"/>
				<stop  offset="0.9536" style="stop-color:#F4F9F4"/>
				<stop  offset="1" style="stop-color:#FFFFFF"/>
			</linearGradient>
			<path style="fill:url(#SVGID_00000111878797596896252150000013422917786324975281_);" d="M765.82,536.9
				c-0.41,1.4-0.84,2.8-1.28,4.19l-39.79,12.22l-1.14,17.73l-34.47-0.83c-2.02-0.1-9.67-8.41-9.46-10.43l4.16-6.57
				c1.86-2.74,6.18-7.22,7.31-8.16c4.36-3.64,15.38-13.07,16.33-16.25c1.96-6.56,4.5-8.92,7.05-9.83
				c12.87-4.58,32.23-3.93,38.66,1.05C755.55,521.85,761.09,529.78,765.82,536.9z"/>
			<path class="st3" d="M733.13,481.76c0,0,7.08-1.31,11.43,1.88c4.35,3.2,5.08,8.11,6.56,12.13c1.48,4.01,12.97,11.87,10.35,16.79
				c-5.54,10.41,4.62,4.95,4.34,16.9c-0.13,5.51-8.49,8.92-17.47,10.99c-13.6,3.13-27.7-3.44-33.75-16.01
				c-0.5-1.03-0.79-1.83-0.81-2.29c-0.11-3.05-0.02-7.63,9.34-9c3.84-0.56,2.85-10.71-1.02-12.56c-3.87-1.86-4.06-5.09-3.46-8.17
				C719.7,486.96,724.75,479.44,733.13,481.76z"/>
			<path class="st13" d="M724.71,500.95c0,0-0.6-1.44-1.55-0.55s-0.36,5.81,1.2,5.09C725.92,504.76,724.71,500.95,724.71,500.95z"/>
		</g>
		<g>
			<path class="st13" d="M70.7,506.23c0,0,1.88,12.39-2.04,18.82h24.93c0,0-1.98-10.66-0.99-17.4
				C93.59,500.89,70.7,506.23,70.7,506.23z"/>
			<path class="st13" d="M81.67,512.07c0,0,18.56-1.23,20.28-23.71c1.36-17.72-0.31-20.86-18.65-21.38
				c-17.37-0.49-20.75,4.57-20.76,10.72C62.5,510.15,74.77,510.48,81.67,512.07z"/>
			<path class="st90" d="M62.54,489.5c0,0-2.15-1.78-2.92,0.42c-0.77,2.2,4.25,9.49,6.13,7.06C67.64,494.54,62.54,489.5,62.54,489.5
				z"/>
			
				<linearGradient id="SVGID_00000082364892195925460310000011787793818137369732_" gradientUnits="userSpaceOnUse" x1="28.8986" y1="536.433" x2="124.5236" y2="594.924">
				<stop  offset="0" style="stop-color:#FFFFFF"/>
				<stop  offset="0.4569" style="stop-color:#FCD9A3"/>
				<stop  offset="0.8277" style="stop-color:#F9BC5E"/>
				<stop  offset="1" style="stop-color:#F8B143"/>
			</linearGradient>
			<path style="fill:url(#SVGID_00000082364892195925460310000011787793818137369732_);" d="M150.16,636.72
				c0.75,2.51-23.52,8.27-49.74,10.36c-5.11-4.55-10.03-9.28-14.74-14.19c-1.44-1.49-2.86-3.01-4.26-4.54
				c-0.54-0.59-1.07-1.17-1.59-1.76c-0.13-0.15-0.26-0.29-0.39-0.44c-0.66-0.73-1.32-1.47-1.98-2.22
				c-14.48-16.6-26.8-35.08-36.62-55.52c0.49-23.08-7.13-33.49,1.05-41.77c10.78-10.92,49.9-11.78,74.35-3.58
				C128.62,527.22,146.46,624.34,150.16,636.72z"/>
			<path class="st3" d="M81.12,452.8c0,0-13.37-2.48-21.58,3.56c-8.2,6.04-9.6,15.32-12.39,22.89c-2.79,7.58-12.52,9.37-8.5,19.1
				c9.98,24.15,48.87,17.52,65.31,12.04c3.17-1.06,0.13-6.17-4.38-7.97c-5.3-2.11-2.66-11.67,2.37-14.08
				c7.31-3.5,7.67-9.61,6.54-15.42C106.48,462.63,96.94,448.43,81.12,452.8z"/>
		</g>
		<path class="st13" d="M198.23,413.07c0,0,8.35,6.34,10.2,8.89c1.85,2.54,7.4,13.64,9.48,16.42c2.08,2.77,5.74,5.55,5.76,11.33
			c0.02,5.78,5.11,17.38,2.57,19.79c-2.54,2.41-10.4,7.5-26.13,6.34C184.38,474.67,198.23,413.07,198.23,413.07z"/>
		<path class="st1" d="M223.67,491.84l-7.49-29.49c0,0,1.05,1.95,3.74,0c2.69-1.95,0-2.4-1.35-4.79s-5.22-7.78-4.03-10.48
			c1.19-2.69-0.61-7.34-4.05-5.54s-11.98,26.35-11.98,26.35l-7.68,21.88l4.96,8.06L223.67,491.84z"/>
		<path class="st3" d="M195.43,410.53c-4.47-0.55-6.63-1.09-8.87-1.09c-2.25,0-3.82-5.61-7.64-5.17c-3.82,0.45-4.04,2.76-7.19,2.73
			s-5.39-3.24-8.53,0.39c-3.14,3.62-2.02,6.77-5.39,7.44s-9.88,2.92-10.33,6.06c-0.45,3.14-0.67,8.76-3.14,10.78
			s-5.39,1.8-4.72,6.06s5.39,6.23,4.04,10.64c-1.35,4.41-2.92,7.11-1.35,9.13c1.57,2.02,3.82,3.59,3.82,6.96
			c0,3.37-4.72,6.96,0,10.78c4.72,3.82,14.82,2.47,15.72,7.41s-2.92,5.88,4.27,7.09c7.19,1.22,5.08,4.14,11.07,4.14
			c6,0,12.28,6.29,20.15,1.12c7.86-5.17,11.59-9.05,12.65-11.18c1.06-2.13,5.54-5.23,3.52-10.84c-2.02-5.61-1.35-10.1,0-14.59
			c1.35-4.49-2.25-5.68-0.9-10.02c1.35-4.35,2.92-12.66,1.12-15.8c-1.8-3.14-7.86-4.27-9.66-9.66
			C202.28,417.53,204.3,411.62,195.43,410.53z"/>
		
			<linearGradient id="SVGID_00000162312372082586920090000000424982287989603473_" gradientUnits="userSpaceOnUse" x1="177.0307" y1="504.38" x2="214.5425" y2="504.38">
			<stop  offset="0" style="stop-color:#FFFFFF"/>
			<stop  offset="2.895474e-03" style="stop-color:#FDFEFD"/>
			<stop  offset="0.0617" style="stop-color:#D0E5D1"/>
			<stop  offset="0.1244" style="stop-color:#A9CFAB"/>
			<stop  offset="0.1934" style="stop-color:#85BB88"/>
			<stop  offset="0.2682" style="stop-color:#68AB6B"/>
			<stop  offset="0.3505" style="stop-color:#509E54"/>
			<stop  offset="0.4436" style="stop-color:#3E9442"/>
			<stop  offset="0.5539" style="stop-color:#318C35"/>
			<stop  offset="0.6975" style="stop-color:#29882E"/>
			<stop  offset="1" style="stop-color:#27872C"/>
		</linearGradient>
		<path style="fill:url(#SVGID_00000162312372082586920090000000424982287989603473_);" d="M177.03,508.94l2.97-17.79
			c0,0,26.65-4.83,34.55,1.52v26.7L177.03,508.94z"/>
		<polygon class="st96" points="163.25,636.71 158.99,598.08 163.25,587.87 231.87,586.14 226.76,645.82 		"/>
		
			<linearGradient id="SVGID_00000042004416361445207400000009960181091425270196_" gradientUnits="userSpaceOnUse" x1="172.8224" y1="558.5443" x2="145.854" y2="505.3789">
			<stop  offset="0" style="stop-color:#27872C"/>
			<stop  offset="0.1522" style="stop-color:#429646"/>
			<stop  offset="0.4795" style="stop-color:#87BC89"/>
			<stop  offset="0.9536" style="stop-color:#F4F9F4"/>
			<stop  offset="1" style="stop-color:#FFFFFF"/>
		</linearGradient>
		<path style="fill:url(#SVGID_00000042004416361445207400000009960181091425270196_);" d="M150.16,636.71
			c0,0-11.14-2.71-10.71-16.85s0-54.82-2.57-64.68c-2.57-9.85-6-22.7,0-30.41c6-7.71,9.85-10.28,20.13-14.13
			c10.28-3.85,22.27-6.11,22.27-6.11l37.77,8.41l3.77,132.87L150.16,636.71z"/>
		
			<linearGradient id="SVGID_00000042727548849903354280000017710104332634183353_" gradientUnits="userSpaceOnUse" x1="722.7305" y1="571.9384" x2="764.5406" y2="571.9384">
			<stop  offset="0" style="stop-color:#A2B8BC"/>
			<stop  offset="0.2196" style="stop-color:#A6BBBF;stop-opacity:0.7804"/>
			<stop  offset="0.4234" style="stop-color:#B1C3C7;stop-opacity:0.5766"/>
			<stop  offset="0.6211" style="stop-color:#C4D2D4;stop-opacity:0.3789"/>
			<stop  offset="0.8137" style="stop-color:#DEE6E7;stop-opacity:0.1863"/>
			<stop  offset="1" style="stop-color:#FFFFFF;stop-opacity:0"/>
		</linearGradient>
		<path style="opacity:0.5;fill:url(#SVGID_00000042727548849903354280000017710104332634183353_);" d="M764.54,541.09
			c-3.29,10.49-7.05,20.74-11.33,30.67c-4.64,10.77-9.88,21.16-15.76,31.03V581.5c-4.72,1.26-9.68,2.36-14.72,3.33l0.88-13.79
			l1.14-17.73L764.54,541.09z"/>
		
			<linearGradient id="SVGID_00000092426693543367203140000007711156299212637102_" gradientUnits="userSpaceOnUse" x1="599.7887" y1="602.303" x2="674.446" y2="497.023">
			<stop  offset="0" style="stop-color:#F8B143"/>
			<stop  offset="0.1723" style="stop-color:#F9BC5E"/>
			<stop  offset="0.5431" style="stop-color:#FCD9A3"/>
			<stop  offset="1" style="stop-color:#FFFFFF"/>
		</linearGradient>
		<path style="fill:url(#SVGID_00000092426693543367203140000007711156299212637102_);" d="M706.45,525.41l-2,44.64
			c-18.31,4.89-48.46,11.45-78.61,11.45c-25.45,0-50.36-4.67-68.18-9.07c1.22-3.53,2.32-7.22,3.14-11.04
			c4.13-19.35,8.42-30.89,13.17-38.01c4.75-7.13,36.66-12.9,36.66-12.9s62.78,4.41,77.04,1.65
			C701.92,509.37,706.45,525.41,706.45,525.41z"/>
		<path class="st3" d="M647.07,419.38c-5.61,0.24-5.61,0.72-17.92,4.64c-12.32,3.92-13.78,7.59-16.02,15.43
			c-2.24,7.84-6.33,7.98-5.22,18.06s-3.93,15.12-3.93,24.64s8.4,14,0,21.28s-10.53,16.87-8.29,26.39
			c2.24,9.52,11.08,16.99,28.45,17.85c17.37,0.86,28-13.44,44.8-8.4c16.8,5.04,36.4-9.52,28.56-23.52
			c-7.84-14-8.96-16.95-11.2-24.71c-2.24-7.76-16.8-8.32-14-15.6c2.8-7.28,8.4-13.85,1.68-24.56s-7.83-5.9-11.76-16.87
			C660.84,430.17,655.51,419.03,647.07,419.38z"/>
		<g>
			<path class="st96" d="M718.98,565.82v-0.26l-7.26-9.68c0,0-42.89,14.87-85.77,14.87c-42.89,0-84.04-14.87-84.04-14.87
				l-5.84,10.45c12.72,4.11,50.61,15.17,89.78,15.17C666.75,581.49,707.65,569.43,718.98,565.82z"/>
			
				<linearGradient id="SVGID_00000022528266624754570990000016209562191548354239_" gradientUnits="userSpaceOnUse" x1="627.5005" y1="727.1352" x2="627.5005" y2="565.8151">
				<stop  offset="0" style="stop-color:#FFFFFF"/>
				<stop  offset="0.285" style="stop-color:#ECF1F2"/>
				<stop  offset="1" style="stop-color:#BFCFD3"/>
			</linearGradient>
			<path style="fill:url(#SVGID_00000022528266624754570990000016209562191548354239_);" d="M718.98,565.82v19.7
				c-5.12,0.91-10.28,1.68-15.33,2.34c-25.26,3.31-47.72,3.76-47.72,3.76l-3.48,23.78l-10.64,72.61c-2.6,1.36-5.2,2.7-7.8,4
				c-31.23,15.72-62.38,27.34-97.99,35.13V566.4l0.04-0.07c4.46,1.44,12,3.73,21.6,6.1c17.82,4.4,42.73,9.07,68.18,9.07
				c30.15,0,60.3-6.56,78.61-11.45C710.98,568.3,716,566.77,718.98,565.82z"/>
		</g>
		<g>
			<path class="st96" d="M287.27,565.82v-0.26l-7.26-9.68c0,0-42.89,14.87-85.77,14.87c-42.89,0-84.04-14.87-84.04-14.87
				l-5.84,10.45c12.72,4.11,50.61,15.17,89.78,15.17C235.04,581.49,275.94,569.43,287.27,565.82z"/>
			
				<linearGradient id="SVGID_00000062186660903133328630000002317238739880511128_" gradientUnits="userSpaceOnUse" x1="195.7866" y1="637.4954" x2="195.7866" y2="555.8737">
				<stop  offset="0" style="stop-color:#FFFFFF"/>
				<stop  offset="0.0161" style="stop-color:#FAFBFC"/>
				<stop  offset="0.1025" style="stop-color:#E4EBED"/>
				<stop  offset="0.2046" style="stop-color:#D3DEE1"/>
				<stop  offset="0.3309" style="stop-color:#C8D5D9"/>
				<stop  offset="0.5081" style="stop-color:#C1D0D4"/>
				<stop  offset="1" style="stop-color:#BFCFD3"/>
			</linearGradient>
			<path style="fill:url(#SVGID_00000062186660903133328630000002317238739880511128_);" d="M194.13,581.49
				c-39.17,0-77.06-11.06-89.78-15.17l-0.04,0.07v71.1h182.96v-71.67C275.94,569.43,235.04,581.49,194.13,581.49z"/>
		</g>
		
			<linearGradient id="SVGID_00000018203369513231588930000004936475559029323437_" gradientUnits="userSpaceOnUse" x1="63.7854" y1="632.2683" x2="63.7854" y2="525.4267">
			<stop  offset="0" style="stop-color:#FFFFFF"/>
			<stop  offset="0.0161" style="stop-color:#FAFBFC"/>
			<stop  offset="0.1025" style="stop-color:#E4EBED"/>
			<stop  offset="0.2046" style="stop-color:#D3DEE1"/>
			<stop  offset="0.3309" style="stop-color:#C8D5D9"/>
			<stop  offset="0.5081" style="stop-color:#C1D0D4"/>
			<stop  offset="1" style="stop-color:#BFCFD3"/>
		</linearGradient>
		<path style="fill:url(#SVGID_00000018203369513231588930000004936475559029323437_);" d="M98.86,558.57l-1.68,73.7l-15.76-3.92
			c-0.54-0.59-1.07-1.17-1.59-1.76c-0.79-0.87-1.58-1.76-2.37-2.66c-18.87-21.63-34.06-46.45-44.85-74.61
			c-1.37-3.57-2.67-7.19-3.9-10.87c29.8,4.59,63.44,13.68,63.44,13.68L98.86,558.57z"/>
		<path class="st13" d="M475.96,471.25c0,0-0.53,7.59-3.71,12.27h-10.33l-0.53-14.13L475.96,471.25z"/>
		<polygon class="st1" points="578.45,579.67 603.1,593.11 608.83,612.33 571.4,608.37 		"/>
		<polygon class="st1" points="464.73,486.62 478.42,455.52 420.48,457.52 422.74,496.19 		"/>
		<path class="st1" d="M484.23,446.93c0,0,2.03-3.37,5.08-1.38c3.06,1.99-0.53,4.12-1.73,6.91c-1.2,2.79,0.53,1.59-1.73,7.57
			c-2.26,5.98-5.18,7.84-6.11,10.7s-2.26,6.31-5.05,5.12s-5.45-11.03-5.45-11.03L484.23,446.93z"/>
		<path class="st1" d="M408.38,434.57c0,0-1.13-4.74-4.32-2.88s-3.29,11.33-2.99,13.69c0.31,2.37,1.03,7.72,2.88,10.14
			s5.46,6.85,8.55,2.73L408.38,434.57z"/>
		<path class="st13" d="M374.43,387.64c0,0,4.17,4.28,3.61,11.21c-0.55,6.93-2.19,15.69-1.78,24.66s2.35,38.73-14.88,40.76
			l-20.18-47.08L374.43,387.64z"/>
		<path class="st1" d="M366.89,418.53c0,0,3.65-3.11,5.47-4.18s2.39-3.82,3.33-4.72c0.85-0.82,2.36-0.64,2.9,1.5
			c0.54,2.15-2.54,7.5-2.36,11.47s3.71,11.57,1.81,15.13c-1.89,3.56-6,6.54-9.75,4.29C364.53,439.77,361.32,424.43,366.89,418.53z"
			/>
		<path class="st3" d="M417.32,465.41c0,0-3.79-1.12-7.86-7.72c-4.07-6.6-5.19-19.51-2.25-27.93c2.95-8.42-0.84-14.08,2.11-20.59
			c2.95-6.51,7.44-25.18,37.76-25.03s29.9,9.12,33.41,13.48c3.51,4.35,7.3,9.83,8.98,16.98c1.68,7.16,1.26,23.02-2.95,31.16
			c-4.21,8.14-11.09,13.19-12.07,17.27C473.47,467.1,456.63,488.43,417.32,465.41z"/>
		<polygon class="st1" points="358.64,489.76 369.85,407 319.71,458.37 315.03,481.6 		"/>
		<circle class="st12" cx="431.94" cy="446.93" r="8.03"/>
		<path class="st9" d="M431.94,483.9c0,0,32.16-6.72,37.86-4.27c5.7,2.44,2.85,5.09,3.05,9.16c0.2,4.07-1.37,9.97,0.53,10.99
			c1.91,1.02,5.57,0,6.79,3.66c1.22,3.66-14.48,14.24-40.21,11.8c-25.73-2.44-39.36,1.22-42.41-4.48c-3.05-5.7,2.85-6.72,6.31-10.17
			C407.32,497.13,431.94,483.9,431.94,483.9z"/>
		
			<linearGradient id="SVGID_00000121258384827792177280000013009595170113437876_" gradientUnits="userSpaceOnUse" x1="456.9464" y1="726.881" x2="456.9464" y2="504.5346">
			<stop  offset="0" style="stop-color:#27872C"/>
			<stop  offset="0.4066" style="stop-color:#2E9C39"/>
			<stop  offset="1" style="stop-color:#38B649"/>
		</linearGradient>
		<path style="fill:url(#SVGID_00000121258384827792177280000013009595170113437876_);" d="M556.91,564.82
			c0.29,2.48-5.46,7.2-14.31,12.92c-27.47,17.76-110.66,149.14-110.66,149.14l-74.97-27.43l17.04-189.43l29.88-1.74l65.89-3.75
			l15.71,5.49c0,0,18.47-3.19,22.75-2.75c4.27,0.45,16.55-0.98,20.82-1.33c2.89-0.24,4.4-0.08,5.24,0.99
			c0.4,0.51,0.64,1.23,0.82,2.21c0.53,3.03,3.91,16.38,6.58,20.12C544.37,533,555.73,554.62,556.91,564.82z"/>
		<path class="st9" d="M556.91,564.82c0.29,2.48-5.46,7.2-14.31,12.92c-7.98-16.41-10.18-42.44-10.59-45.33
			c-0.43-3-1.29-20.15,1.07-24.23c0.38-0.65,0.79-1.05,1.22-1.25c0.4,0.51,0.64,1.23,0.82,2.21c0.53,3.03,3.91,16.38,6.58,20.12
			C544.37,533,555.73,554.62,556.91,564.82z"/>
		<path class="st3" d="M298.99,460.26c0,0-5.35-9.3-3.25-13.71c2.09-4.42-3.02-2.09-7.44-14.18s1.16-15.57-3.95-20.68
			c-5.11-5.11-4.88-27.89,6.04-31.61c10.92-3.72,9.18-32.77,35.73-29.51c26.55,3.25,31.66,5.35,39.33,16.04
			c7.67,10.69,15.34,4.88,11.62,23.24c-3.72,18.36-10.69,32.77-9.06,38.11c1.63,5.35-6.51,13.1-12.32,27
			C349.88,468.86,320.6,479.55,298.99,460.26z"/>
		<g>
			<path class="st96" d="M580.32,605.88c-17.5,3.32-37.91,5.99-58.32,5.99c-16.47,0-33.87-0.55-50.1-1.31
				c-0.34-0.02-0.67-0.03-1-0.05c-36.69-1.75-67.19-4.56-67.19-4.56l-7.42,13.28v10.82c155.07,23.45,248.48-22.55,248.48-22.55
				l-14.51-14.4C630.26,593.1,609.25,600.38,580.32,605.88z"/>
			
				<linearGradient id="SVGID_00000133495802066624987750000004974512248103240118_" gradientUnits="userSpaceOnUse" x1="520.5306" y1="739.8264" x2="520.5306" y2="593.0976">
				<stop  offset="0" style="stop-color:#FFFFFF"/>
				<stop  offset="0.1063" style="stop-color:#ECF1F2"/>
				<stop  offset="0.2573" style="stop-color:#D8E2E4"/>
				<stop  offset="0.4298" style="stop-color:#CAD7DA"/>
				<stop  offset="0.6407" style="stop-color:#C1D1D5"/>
				<stop  offset="1" style="stop-color:#BFCFD3"/>
			</linearGradient>
			<path style="fill:url(#SVGID_00000133495802066624987750000004974512248103240118_);" d="M644.77,607.51l-3.15,24.76l-7.61,59.74
				c-47.79,24.06-95.4,38.5-159.08,44.36c-26.63,2.45-52.93,3.62-78.64,3.44V630.05c5.47,0.83,10.87,1.57,16.19,2.22
				c54.85,6.81,101.39,4.96,138.07,0C611.07,624.1,644.77,607.51,644.77,607.51z"/>
		</g>
		
			<linearGradient id="SVGID_00000135666876795472789370000011898161165783409342_" gradientUnits="userSpaceOnUse" x1="272.8524" y1="487.1632" x2="379.3878" y2="487.1632">
			<stop  offset="0.1605" style="stop-color:#FFFFFF"/>
			<stop  offset="0.6561" style="stop-color:#E7EFF3"/>
			<stop  offset="1" style="stop-color:#DBE8ED"/>
		</linearGradient>
		<path style="fill:url(#SVGID_00000135666876795472789370000011898161165783409342_);" d="M274.56,476.8c0,0-3.85-0.6,0-3.81
			c3.85-3.21,11.09-9.32,13.36-12.72c2.26-3.4,2.72-5.89,6.34-5.21c3.62,0.68,20.83,8.94,27.17,10.81s31.02,7.98,35.77,13.64
			c4.75,5.66,19.24,15.85,21.06,21.96c1.81,6.11,0.91,17.89,0.91,17.89L274.56,476.8z"/>
		<g>
			<g>
				
					<linearGradient id="SVGID_00000183242253071835256760000017559841130886897829_" gradientUnits="userSpaceOnUse" x1="134.7561" y1="312.145" x2="134.7561" y2="309.145">
					<stop  offset="0" style="stop-color:#DBE8ED"/>
					<stop  offset="0.4997" style="stop-color:#CFDEE2"/>
					<stop  offset="1" style="stop-color:#BFCFD3"/>
				</linearGradient>
				<path style="fill:url(#SVGID_00000183242253071835256760000017559841130886897829_);" d="M134.76,312.15c1.93,0,1.93-3,0-3
					C132.83,309.15,132.82,312.15,134.76,312.15L134.76,312.15z"/>
			</g>
		</g>
		<g>
			<g>
				
					<linearGradient id="SVGID_00000052823265298896056000000016606075028087621033_" gradientUnits="userSpaceOnUse" x1="323.2045" y1="617.445" x2="323.2045" y2="614.445">
					<stop  offset="0" style="stop-color:#DBE8ED"/>
					<stop  offset="0.4997" style="stop-color:#CFDEE2"/>
					<stop  offset="1" style="stop-color:#BFCFD3"/>
				</linearGradient>
				<path style="fill:url(#SVGID_00000052823265298896056000000016606075028087621033_);" d="M323.2,617.45c1.93,0,1.93-3,0-3
					C321.27,614.45,321.27,617.45,323.2,617.45L323.2,617.45z"/>
			</g>
		</g>
		<path class="st3" d="M424.65,446.57c0.74-1.14,2.32-4.31,6.47-3.72c4.15,0.59,5.05,2.18,5.73,4.54
			c0.99,3.47,3.36,10.12,11.46,25.6c8.1,15.49-1.58,22.4-1.98,29.12s8.1,11.46,3.16,32.6c-4.94,21.14-10.74,48.4-10.74,48.4
			l-33.52-27.66c0,0,9.48-8.89,7.31-19.36c-2.17-10.47-16.4-27.4-11.46-48.93C406.03,465.63,417.92,456.89,424.65,446.57z"/>
		<path class="st108" d="M584.88,616.76c-1.46,7.08-6.41,14.94-12.8,14.3c-6.4-0.63-7.97,3.77-12.94,4.04
			c-4.96,0.27-5.55,10.08-19.98,17.76c-14.44,7.69-42.73,25.01-51.72,23.74c-8.99-1.27-25.29-9.33-30.13-10.2
			c-4.85-0.86-17.79-10.15-37.05-18.89c-9.03-4.1-23.97-16.25-23.97-16.25l7.42-25.3c0,0,30.5,2.81,67.19,4.56
			c0.63,0.48,0.98,0.75,0.98,0.75s-0.02-0.27,0.02-0.7c0.17-1.77,1.29-6.24,8.52-4.9c8.95,1.65,12.74-2.16,22.93-1.53
			c10.19,0.62,24.67-3.64,30.63-6.46c5.98-2.83,13.58-10.43,20.34-9.76c6.77,0.67,18.95,0.36,23.17,3.81
			c3.5,2.88,2.3,10.81,2.83,14.16c0.1,0.67,0.28,1.16,0.57,1.38C582.66,608.57,586.34,609.69,584.88,616.76z"/>
		
			<linearGradient id="SVGID_00000002374793163782032920000010838326816739268003_" gradientUnits="userSpaceOnUse" x1="380.2901" y1="681.0695" x2="380.2901" y2="470.2551">
			<stop  offset="0" style="stop-color:#DBE8ED"/>
			<stop  offset="0.3425" style="stop-color:#E7EFF3"/>
			<stop  offset="0.8362" style="stop-color:#FFFFFF"/>
		</linearGradient>
		<path style="fill:url(#SVGID_00000002374793163782032920000010838326816739268003_);" d="M590.16,590.52
			c-0.75,7.18-4.91,15.49-11.33,15.49c-6.43,0-7.56,4.53-12.48,5.29c-4.91,0.76-4.53,10.58-18.13,19.65
			c-13.61,9.07-40.06,29.1-49.13,28.72c-9.07-0.38-26.08-6.8-30.99-7.18c-4.91-0.38-13.98,1.13-34.01-5.67s-46.48-19.65-46.48-19.65
			l-17.13,32.98l-3.28,6.32l-11.53,65.38l-185.35-42.33v-44.59c0,0,0-16.63,2.65-28.34c1.81-8.02,3.44-11.98,3.81-16.46v-0.01
			c0.17-2.06,0.06-4.23-0.41-6.96c-1.51-8.69-3.94-16.63,0.48-26.83c4.43-10.2,14.26-29.48,15.77-38.55
			c1.51-9.06,7.18-32.12,20.4-40.43c13.23-8.31,26.08-14.36,34.77-14.36c8.69,0,17.76,4.16,22.67,2.65
			c4.92-1.52,9.45-2.27,21.17,1.13c11.71,3.4,65.37,21.92,82.38,33.25c17,11.34,71.04,67.65,78.22,71.43
			c7.18,3.77,24.94,14.73,24.94,14.73s-1.13-7.18,7.94-6.42c9.07,0.76,12.47-3.4,22.67-3.78c10.2-0.38,24.19-6.05,29.85-9.45
			c5.67-3.4,12.48-11.71,19.28-11.71c6.8,0,18.89-1.51,23.43,1.51c4.53,3.02,3.02,13.98,4.91,15.12
			C587.14,582.58,590.92,583.34,590.16,590.52z"/>
		<path class="st110" d="M370.48,660.15l-3.28,6.32l-11.53,65.38l-185.35-42.33v-44.59c0,0,0-16.63,2.65-28.34
			c1.81-8.02,3.44-11.98,3.81-16.46c0,0,20.57,20.9,54.95,19.5c34.37-1.41,64.8,6.28,64.8,6.28l45.91,15.97L370.48,660.15z"/>
		<g>
			<path class="st96" d="M356.97,629.07v0.4c-17.33,5.52-79.9,23.98-142.48,23.98c-52.79,0-104.05-13.13-128.81-20.56
				c-3.35-1-6.21-1.9-8.53-2.65l2.29-4.09l6.64-11.9c0,0,62.96,22.75,128.57,22.75c65.61,0,131.21-22.75,131.21-22.75L356.97,629.07
				z"/>
			
				<linearGradient id="SVGID_00000130608431475599539410000006052403872391657649_" gradientUnits="userSpaceOnUse" x1="213.2624" y1="722.6286" x2="239.7318" y2="601.3434">
				<stop  offset="0" style="stop-color:#FFFFFF"/>
				<stop  offset="0.2144" style="stop-color:#E9EEF0"/>
				<stop  offset="0.4987" style="stop-color:#D2DDE0"/>
				<stop  offset="0.7668" style="stop-color:#C4D3D6"/>
				<stop  offset="1" style="stop-color:#BFCFD3"/>
			</linearGradient>
			<path style="fill:url(#SVGID_00000130608431475599539410000006052403872391657649_);" d="M356.97,629.47v109.01
				c-111.43-6.92-208.98-40.69-271.29-105.59c24.76,7.43,76.02,20.56,128.81,20.56C277.07,653.45,339.64,634.99,356.97,629.47z"/>
		</g>
		
			<linearGradient id="SVGID_00000044867397982096544400000002404375273905134490_" gradientUnits="userSpaceOnUse" x1="641.8101" y1="634.7533" x2="737.4503" y2="634.7533">
			<stop  offset="0" style="stop-color:#A2B8BC"/>
			<stop  offset="0.2196" style="stop-color:#A6BBBF;stop-opacity:0.7804"/>
			<stop  offset="0.4234" style="stop-color:#B1C3C7;stop-opacity:0.5766"/>
			<stop  offset="0.6211" style="stop-color:#C4D2D4;stop-opacity:0.3789"/>
			<stop  offset="0.8137" style="stop-color:#DEE6E7;stop-opacity:0.1863"/>
			<stop  offset="1" style="stop-color:#FFFFFF;stop-opacity:0"/>
		</linearGradient>
		<path style="fill:url(#SVGID_00000044867397982096544400000002404375273905134490_);" d="M737.45,581.5v21.29
			c-0.17,0.29-0.35,0.58-0.52,0.87c-2.25,3.74-4.59,7.41-7.03,10.99c-0.34,0.49-0.67,0.98-1.01,1.47c-0.39,0.56-0.78,1.13-1.18,1.68
			c-0.64,0.92-1.3,1.84-1.97,2.75c-0.68,0.94-1.37,1.87-2.07,2.8c-0.63,0.84-1.26,1.67-1.9,2.49c-1.69,2.18-3.43,4.32-5.2,6.43
			c-13.45,15.97-29.25,29.77-47.67,40.62c-4.43,2.61-8.82,5.13-13.19,7.58c-4.65,2.6-9.28,5.12-13.9,7.54l14.12-96.39
			c0,0,32.35-0.65,63.05-6.1c1.25-0.22,2.51-0.46,3.75-0.69C727.77,583.86,732.73,582.76,737.45,581.5z"/>
		
			<linearGradient id="SVGID_00000021092758811026705040000009785165186232157358_" gradientUnits="userSpaceOnUse" x1="662.5667" y1="621.8048" x2="713.9451" y2="644.1002">
			<stop  offset="0" style="stop-color:#BFCFD3"/>
			<stop  offset="0.336" style="stop-color:#D1DCDF"/>
			<stop  offset="1" style="stop-color:#FFFFFF"/>
		</linearGradient>
		<path style="fill:url(#SVGID_00000021092758811026705040000009785165186232157358_);" d="M738.48,593.11v7.93
			c-0.51,0.88-1.03,1.76-1.55,2.62c-2.25,3.74-4.59,7.41-7.03,10.99c-0.34,0.49-0.67,0.98-1.01,1.47c-0.39,0.56-0.78,1.13-1.18,1.68
			c-0.64,0.92-1.3,1.84-1.97,2.75c-0.68,0.94-1.37,1.87-2.07,2.8c-0.63,0.84-1.26,1.67-1.9,2.49c-1.69,2.18-3.43,4.32-5.2,6.43
			c-13.45,15.97-29.25,29.77-47.67,40.62c-4.43,2.61-8.82,5.13-13.19,7.58l7.06-48.2l4.37-29.84
			C667.14,602.43,706.77,601.55,738.48,593.11z"/>
		<g>
			<g>
				
					<linearGradient id="SVGID_00000057130924415917889320000004881365995028778154_" gradientUnits="userSpaceOnUse" x1="593.7817" y1="295.301" x2="593.7817" y2="292.301">
					<stop  offset="0" style="stop-color:#FFFFFF"/>
					<stop  offset="0.0161" style="stop-color:#FAFBFC"/>
					<stop  offset="0.1025" style="stop-color:#E4EBED"/>
					<stop  offset="0.2046" style="stop-color:#D3DEE1"/>
					<stop  offset="0.3309" style="stop-color:#C8D5D9"/>
					<stop  offset="0.5081" style="stop-color:#C1D0D4"/>
					<stop  offset="1" style="stop-color:#BFCFD3"/>
				</linearGradient>
				<path style="fill:url(#SVGID_00000057130924415917889320000004881365995028778154_);" d="M593.78,295.3c1.93,0,1.93-3,0-3
					C591.85,292.3,591.85,295.3,593.78,295.3L593.78,295.3z"/>
			</g>
		</g>
		<g>
			
				<linearGradient id="SVGID_00000134929624638010118990000009668126841539379124_" gradientUnits="userSpaceOnUse" x1="342.6613" y1="283.9235" x2="342.6613" y2="64.5458">
				<stop  offset="0.1638" style="stop-color:#FFFFFF"/>
				<stop  offset="0.6575" style="stop-color:#E7EFF3"/>
				<stop  offset="1" style="stop-color:#DBE8ED"/>
			</linearGradient>
			<circle style="fill:url(#SVGID_00000134929624638010118990000009668126841539379124_);" cx="342.66" cy="174.23" r="109.69"/>
			<circle class="st16" cx="342.66" cy="174.23" r="94.79"/>
		</g>
		
			<linearGradient id="SVGID_00000037665500306806744920000011937096703652145804_" gradientUnits="userSpaceOnUse" x1="291.4875" y1="145.355" x2="409.0087" y2="211.677">
			<stop  offset="0" style="stop-color:#FFFFFF"/>
			<stop  offset="1" style="stop-color:#DBE8ED"/>
		</linearGradient>
		<path style="fill:url(#SVGID_00000037665500306806744920000011937096703652145804_);" d="M406.54,163.72
			c1.93,0.14,3.59-1.37,3.59-3.31v-24.44c0-1.83-1.49-3.32-3.32-3.32h-128.3c-1.83,0-3.32,1.49-3.32,3.32v24.44
			c0,1.94,1.65,3.45,3.59,3.31c6.18-0.46,11.35,4.44,11.35,10.52c0,6.08-5.17,10.97-11.35,10.52c-1.93-0.14-3.59,1.37-3.59,3.31
			v24.44c0,1.83,1.49,3.32,3.32,3.32l34.72,0h93.59c1.83,0,3.32-1.49,3.32-3.32v-24.44c0-1.94-1.65-3.45-3.59-3.31
			c-6.18,0.46-11.35-4.44-11.35-10.52S400.37,163.26,406.54,163.72z M342.37,201.82c-6.29,0.13-12.62-1.83-17.77-5.93
			c-3.03-2.41-5.4-5.29-7.12-8.43c-5.72-10.44-4.23-23.8,4.48-32.7l-5.28-5.28c-0.29-0.29-0.08-0.81,0.35-0.88l18.83-2.88
			c0.31-0.05,0.58,0.22,0.53,0.53l-2.88,18.82c-0.07,0.43-0.59,0.64-0.88,0.35l-5.27-5.27c-5.71,5.88-7.07,14.4-4.15,21.57
			c1.1,2.7,2.78,5.22,5.11,7.32c4.23,3.83,9.8,5.5,15.22,5.03L342.37,201.82z M368.64,198.98c0.28,0.29,0.08,0.81-0.35,0.88
			l-18.83,2.88c-0.31,0.05-0.58-0.22-0.53-0.53l2.88-18.82c0.07-0.43,0.59-0.64,0.88-0.35l5.27,5.27c5.71-5.88,7.07-14.4,4.15-21.57
			c-1.1-2.7-2.78-5.22-5.11-7.32c-4.23-3.83-9.81-5.5-15.22-5.03l1.18-7.74c6.29-0.13,12.62,1.83,17.77,5.93
			c3.03,2.41,5.4,5.29,7.12,8.43c5.72,10.44,4.23,23.8-4.48,32.7L368.64,198.98z"/>
	</g>
</g>
</svg>
